<svg id="Layer_1" viewBox="0 0 512 512" xmlns="http://www.w3.org/2000/svg" data-name="Layer 1"><path d="m174.5 428.687h85.153c-16.951-38.863-21.713-85.323-14.712-119.339h-55.7c6.973 34.016 2.239 80.476-14.741 119.339z" fill="#b3c1cc" fill-rule="evenodd"/><path d="m427.15 347.956a17.741 17.741 0 0 1 -17.659 17.688h-384.804a17.747 17.747 0 0 1 -17.687-17.688v-246.983a17.723 17.723 0 0 1 17.688-17.66h384.8a17.717 17.717 0 0 1 17.659 17.66v246.983z" fill="#eaf6ff" fill-rule="evenodd"/><path d="m100.543 137.937h34.469v130.62h-34.469z" fill="#57a3ff"/><path d="m157.547 167.389h34.469v101.168h-34.469z" fill="#fa4655"/><path d="m214.552 137.937h34.469v130.62h-34.469z" fill="#4bd16d"/><path d="m43.538 197.408h34.469v71.15h-34.469z" fill="#ffba57"/><g fill-rule="evenodd"><path d="m245.308 380.724h-56.466a215.836 215.836 0 0 0 3.345-45.921h49.776a215.836 215.836 0 0 0 3.345 45.921z" fill="#a1aeb8"/><path d="m427.15 316.633h-420.15v31.323a17.747 17.747 0 0 0 17.688 17.688h384.8a17.741 17.741 0 0 0 17.659-17.688z" fill="#8d9ca8"/><path d="m454.278 381.66v44.022h-84.756l-4.79-17.83a19.821 19.821 0 0 0 -19.361-14.882h-22.366a14.92 14.92 0 0 1 -14.853-12.841l-6.435-44.617h-27.779l13.889-26.589a130.066 130.066 0 0 0 15-52.1c12.1-150.888 321.024-66.529 151.455 124.838z" fill="#fac896"/><path d="m457.736 296.167a59.608 59.608 0 0 1 -7.483 18.028l3.458 5.783 4.224 7.058a76.1 76.1 0 0 1 -14.315 14.315l-7.059-4.223-5.782-3.43a59.877 59.877 0 0 1 -18.029 7.455l-1.644 6.519-2.012 7.966a75.645 75.645 0 0 1 -20.24 0l-2.012-7.966-1.644-6.519a59.041 59.041 0 0 1 -18-7.484l-5.783 3.459-7.058 4.223a76.044 76.044 0 0 1 -14.315-14.315l4.223-7.058 3.43-5.783a59.576 59.576 0 0 1 -7.455-18.028l-6.519-1.644-7.966-1.984a72.779 72.779 0 0 1 0-20.268l7.966-1.985 6.519-1.644a59.576 59.576 0 0 1 7.455-18.028l-3.43-5.783-4.223-7.058a76.044 76.044 0 0 1 14.315-14.315l7.058 4.224 5.783 3.458a59.014 59.014 0 0 1 18-7.483l1.644-6.52 2.012-7.965a75.535 75.535 0 0 1 20.24 0l2.012 7.965 1.644 6.52a59.178 59.178 0 0 1 18.029 7.483l5.782-3.458 7.059-4.224a76.1 76.1 0 0 1 14.315 14.315l-4.224 7.058-3.458 5.783a58.883 58.883 0 0 1 7.483 18.028l6.52 1.644 7.965 1.985a75.853 75.853 0 0 1 0 20.268l-7.965 1.984z" fill="#8d9ca8"/><path d="m432.621 282.419a33.633 33.633 0 1 1 -33.647-33.647 33.625 33.625 0 0 1 33.647 33.647z" fill="#eaf6ff"/><path d="m27.409 347.956v-31.323h-20.409v31.323a17.747 17.747 0 0 0 17.688 17.688h20.412a17.747 17.747 0 0 1 -17.688-17.688z" fill="#7a8b99"/><path d="m7 316.633h20.41v-215.66a17.723 17.723 0 0 1 17.69-17.66h-20.413a17.723 17.723 0 0 0 -17.687 17.66z" fill="#d3dde6"/><path d="m193.462 421.685a222.281 222.281 0 0 0 13.606-56.041h-16.044a222.34 222.34 0 0 1 -13.634 56.041z" fill="#a1aeb8"/></g><path d="m43.538 197.408h12.104v71.15h-12.104z" fill="#e6a74e"/><path d="m100.543 137.937h12.104v130.62h-12.104z" fill="#4e93e6"/><path d="m157.547 167.389h12.104v101.168h-12.104z" fill="#e63140"/><path d="m214.552 137.937h12.132v130.62h-12.132z" fill="#44bc62"/><path d="m303.418 308.923a129.655 129.655 0 0 0 15.024-52.1c4.025-50.428 41.244-74.579 82.686-77.244-47.253-2.948-93.77 20.523-98.3 77.244a130.066 130.066 0 0 1 -15 52.1l-4.053 7.71-9.836 18.879h15.619l9.836-18.879zm76.932 98.929a19.819 19.819 0 0 0 -19.36-14.882h-15.619a19.821 19.821 0 0 1 19.361 14.882l4.79 17.83h15.619zm-58.677-42.208-4.365-30.132h-15.591l4.337 30.132 2.1 14.485a14.92 14.92 0 0 0 14.853 12.841h15.619a14.9 14.9 0 0 1 -14.853-12.841z" fill="#edb47c" fill-rule="evenodd"/><path d="m379.5 231.14a59.014 59.014 0 0 1 18-7.483l1.644-6.52 2.013-7.965c1.332-.17 2.636-.341 3.968-.426-2.012-.17-4.082-.255-6.151-.255a74.542 74.542 0 0 0 -10.12.681l-2.012 7.965-1.644 6.52a58.016 58.016 0 0 0 -11.566 4l.085.028zm19.644 116.532-1.644-6.519a59.041 59.041 0 0 1 -18-7.484l-5.783 3.459-.056.056a58.963 58.963 0 0 0 11.537 3.969l1.644 6.519 2.012 7.966a74.7 74.7 0 0 0 10.12.68c2.069 0 4.139-.085 6.151-.255-1.332-.085-2.636-.255-3.968-.425zm-42.605-27.694 2.013-3.345 1.448-2.433a59.525 59.525 0 0 1 -7.455-18.028l-6.52-1.644-7.966-1.984a72.881 72.881 0 0 1 0-20.268l7.966-1.985 6.52-1.644a59.525 59.525 0 0 1 7.455-18.033l-3.459-5.783-4.195-7.058a73.373 73.373 0 0 1 9.184-10.034l-.113-.057-7.058-4.224a76.044 76.044 0 0 0 -14.315 14.315l4.223 7.058 3.43 5.783a59.576 59.576 0 0 0 -7.455 18.028l-6.519 1.644-7.966 1.985a72.779 72.779 0 0 0 0 20.268l7.966 1.984 6.519 1.644a59.576 59.576 0 0 0 7.458 18.033l-1.445 2.438-1.985 3.345-4.223 7.058a76.044 76.044 0 0 0 14.315 14.315l7.058-4.223.113-.057a73.381 73.381 0 0 1 -9.184-10.035z" fill="#7a8b99" fill-rule="evenodd"/><path d="m394.779 249.027a33.64 33.64 0 0 1 0 66.756 34.385 34.385 0 0 0 4.195.255 33.633 33.633 0 1 0 0-67.266 34.385 34.385 0 0 0 -4.195.255z" fill="#d3dde6" fill-rule="evenodd"/><path d="m24.708 372.63h158.392a213.1 213.1 0 0 1 -13.222 49.07h-15.911a6.987 6.987 0 0 0 0 13.974h20.51.038.027 85.106.027.039 20.509a6.987 6.987 0 0 0 0-13.974h-15.91a213.125 213.125 0 0 1 -13.22-49.069h48.938l1.226 8.5a21.836 21.836 0 0 0 21.769 18.826h22.365a12.766 12.766 0 0 1 12.609 9.708l4.79 17.83a6.988 6.988 0 0 0 6.748 5.173h84.762a6.986 6.986 0 0 0 6.987-6.987v-41.388c67.891-77.815 52.961-131.707 37.891-157.011-12.223-20.525-33.033-37.021-58.6-46.449-2.123-.784-4.268-1.494-6.42-2.17v-77.691a24.688 24.688 0 0 0 -24.675-24.647h-384.775a24.689 24.689 0 0 0 -24.676 24.647v246.983a24.7 24.7 0 0 0 24.676 24.675zm224.6 49.069h-64.429a229.9 229.9 0 0 0 12.326-49.069h39.78a229.927 229.927 0 0 0 12.326 49.07zm-6.218-63.043h-218.382a10.713 10.713 0 0 1 -10.7-10.7v-24.336h258.28l-4.522 8.656a6.988 6.988 0 0 0 6.193 10.223h21.728l2.33 16.157zm244.079-124.224c22.874 38.409 9.343 89.05-38.1 142.593a6.982 6.982 0 0 0 -1.758 4.634v37.035h-72.411l-3.4-12.649a26.739 26.739 0 0 0 -26.111-20.063h-22.363a7.958 7.958 0 0 1 -7.938-6.851l-6.435-44.617a6.988 6.988 0 0 0 -6.916-5.99h-16.245l8.551-16.369a136.76 136.76 0 0 0 15.765-54.776c3.884-48.412 38.691-63.6 59.094-68.348a115.846 115.846 0 0 1 55.47 1.284 6.967 6.967 0 0 0 1.817.51c25.738 7.24 48.536 22.712 60.98 43.607zm-462.461-144.132h384.775a10.7 10.7 0 0 1 10.7 10.673v74.087a128.779 128.779 0 0 0 -54.447.36c-41.04 9.546-66.5 39.012-69.858 80.843a123.389 123.389 0 0 1 -14.224 49.425l-2.067 3.958h-265.58v-208.674a10.7 10.7 0 0 1 10.701-10.672zm208.049 250.852a6.988 6.988 0 0 1 -6.988 6.987h-17.348a6.987 6.987 0 0 1 0-13.974h17.348a6.987 6.987 0 0 1 6.988 6.987zm-18.185-65.609h34.47a6.986 6.986 0 0 0 6.987-6.987v-130.62a6.987 6.987 0 0 0 -6.987-6.987h-34.47a6.987 6.987 0 0 0 -6.987 6.987v130.62a6.987 6.987 0 0 0 6.987 6.987zm6.988-130.62h20.494v116.646h-20.494zm-178.03 130.62h34.5a6.987 6.987 0 0 0 6.987-6.987v-71.149a6.988 6.988 0 0 0 -6.987-6.988h-34.5a6.987 6.987 0 0 0 -6.987 6.988v71.149a6.986 6.986 0 0 0 6.987 6.987zm6.987-71.149h20.523v57.175h-20.523zm107.051 71.149h34.469a6.986 6.986 0 0 0 6.987-6.987v-101.168a6.987 6.987 0 0 0 -6.987-6.987h-34.469a6.988 6.988 0 0 0 -6.988 6.987v101.168a6.987 6.987 0 0 0 6.988 6.987zm6.987-101.168h20.494v87.194h-20.494zm-63.992 101.168h34.469a6.986 6.986 0 0 0 6.987-6.987v-130.62a6.987 6.987 0 0 0 -6.987-6.987h-34.469a6.988 6.988 0 0 0 -6.988 6.987v130.62a6.987 6.987 0 0 0 6.988 6.987zm6.987-130.62h20.495v116.646h-20.495zm310.992 73.044-2.654-10.509a6.986 6.986 0 0 0 -5.82-5.209 79.594 79.594 0 0 0 -22.139 0 6.988 6.988 0 0 0 -5.829 5.21l-2.654 10.51a65.847 65.847 0 0 0 -12.176 5.061l-9.305-5.568a6.991 6.991 0 0 0 -7.827.442 82.1 82.1 0 0 0 -15.645 15.648 6.992 6.992 0 0 0 -.427 7.809l5.555 9.3a66.3 66.3 0 0 0 -5.052 12.208l-10.482 2.619a6.987 6.987 0 0 0 -5.234 5.833 82.046 82.046 0 0 0 -.774 11.067 81 81 0 0 0 .774 11.1 6.988 6.988 0 0 0 5.234 5.833l10.482 2.619a66.339 66.339 0 0 0 5.052 12.209l-5.555 9.3a6.989 6.989 0 0 0 .441 7.827 83.077 83.077 0 0 0 15.631 15.63 6.992 6.992 0 0 0 7.827.441l9.305-5.567a65.746 65.746 0 0 0 12.176 5.06l2.654 10.51a6.989 6.989 0 0 0 5.829 5.211 82.665 82.665 0 0 0 22.139 0 6.987 6.987 0 0 0 5.82-5.21l2.654-10.509a65.856 65.856 0 0 0 12.2-5.061l9.306 5.567a6.989 6.989 0 0 0 7.827-.441 83.042 83.042 0 0 0 15.63-15.63 6.987 6.987 0 0 0 .442-7.827l-5.573-9.315a66.473 66.473 0 0 0 5.067-12.195l10.485-2.62a6.988 6.988 0 0 0 5.234-5.833 82.781 82.781 0 0 0 0-22.162 6.987 6.987 0 0 0 -5.234-5.833l-10.485-2.62a66.444 66.444 0 0 0 -5.067-12.195l5.573-9.315a6.987 6.987 0 0 0 -.442-7.827 83.042 83.042 0 0 0 -15.63-15.63 6.989 6.989 0 0 0 -7.827-.442l-9.306 5.568a65.928 65.928 0 0 0 -12.2-5.064zm24.477 14a69 69 0 0 1 6.421 6.421l-5.164 8.635a6.987 6.987 0 0 0 .063 7.275 52.522 52.522 0 0 1 6.61 15.914 6.986 6.986 0 0 0 5.1 5.2l9.737 2.446c.1 1.5.149 3.012.149 4.527s-.05 3.048-.149 4.555l-9.738 2.446a6.991 6.991 0 0 0 -5.1 5.2 52.549 52.549 0 0 1 -6.61 15.915 6.985 6.985 0 0 0 -.062 7.275l5.163 8.634a68.985 68.985 0 0 1 -6.421 6.42l-8.634-5.164a6.987 6.987 0 0 0 -7.3.078 52.058 52.058 0 0 1 -15.9 6.6 6.988 6.988 0 0 0 -5.194 5.1l-2.457 9.739a70.305 70.305 0 0 1 -9.088 0l-2.457-9.737a6.987 6.987 0 0 0 -5.194-5.1 51.972 51.972 0 0 1 -15.87-6.6 6.985 6.985 0 0 0 -7.3-.078l-8.624 5.167a69.23 69.23 0 0 1 -6.421-6.42l5.148-8.656a6.986 6.986 0 0 0 -.075-7.253 52.513 52.513 0 0 1 -6.582-15.915 6.991 6.991 0 0 0 -5.1-5.2l-9.755-2.45c-.107-1.529-.16-3.038-.16-4.551 0-1.479.054-2.991.162-4.523l9.752-2.45a6.987 6.987 0 0 0 5.1-5.2 52.486 52.486 0 0 1 6.581-15.917 6.992 6.992 0 0 0 .076-7.254l-5.155-8.665a68.473 68.473 0 0 1 6.429-6.411l8.637 5.166a6.979 6.979 0 0 0 7.3-.077 52 52 0 0 1 15.87-6.6 6.984 6.984 0 0 0 5.194-5.1l2.461-9.752a63.7 63.7 0 0 1 9.08 0l2.458 9.758a6.985 6.985 0 0 0 5.194 5.1 52.085 52.085 0 0 1 15.9 6.6 6.981 6.981 0 0 0 7.3.077zm-44.025 9.812a40.62 40.62 0 1 0 40.635 40.606 40.652 40.652 0 0 0 -40.635-40.601zm0 67.265a26.646 26.646 0 1 1 26.66-26.659 26.675 26.675 0 0 1 -26.66 26.664zm-130.719-173.144a6.987 6.987 0 0 1 6.987-6.987h68.712a6.987 6.987 0 1 1 0 13.974h-68.712a6.987 6.987 0 0 1 -6.987-6.987zm0 22.791a6.987 6.987 0 0 1 6.987-6.987h34.356a6.987 6.987 0 1 1 0 13.974h-34.356a6.987 6.987 0 0 1 -6.987-6.992zm0 22.818a6.987 6.987 0 0 1 6.987-6.987h34.356a6.988 6.988 0 0 1 0 13.975h-34.356a6.987 6.987 0 0 1 -6.987-6.997z"/></svg>