<svg xmlns="http://www.w3.org/2000/svg" version="1.1" xmlns:xlink="http://www.w3.org/1999/xlink" width="512" height="512" x="0" y="0" viewBox="0 0 512 512" style="enable-background:new 0 0 512 512" xml:space="preserve"><g><path d="M24.708 372.63H183.1a213.1 213.1 0 0 1-13.222 49.07h-15.911a6.987 6.987 0 0 0 0 13.974h126.256a6.987 6.987 0 0 0 0-13.974h-15.91a213.125 213.125 0 0 1-13.22-49.069h48.938l1.226 8.5a21.836 21.836 0 0 0 21.769 18.826h22.365A12.766 12.766 0 0 1 358 409.665l4.79 17.83a6.988 6.988 0 0 0 6.748 5.173H454.3a6.986 6.986 0 0 0 6.987-6.987v-41.388c67.891-77.815 52.961-131.707 37.891-157.011-12.223-20.525-33.033-37.021-58.6-46.449a137.194 137.194 0 0 0-6.42-2.17v-77.691a24.688 24.688 0 0 0-24.675-24.647H24.708A24.689 24.689 0 0 0 .032 100.972v246.983a24.7 24.7 0 0 0 24.676 24.675Zm224.6 49.069h-64.429a229.9 229.9 0 0 0 12.326-49.069h39.78a229.927 229.927 0 0 0 12.326 49.07Zm-6.218-63.043H24.708a10.713 10.713 0 0 1-10.7-10.7V323.62h258.28l-4.522 8.656a6.988 6.988 0 0 0 6.193 10.223h21.728l2.33 16.157Zm244.079-124.224c22.874 38.409 9.343 89.05-38.1 142.593a6.982 6.982 0 0 0-1.758 4.634v37.035H374.9l-3.4-12.649a26.739 26.739 0 0 0-26.111-20.063h-22.363a7.958 7.958 0 0 1-7.938-6.851l-6.435-44.617a6.988 6.988 0 0 0-6.916-5.99h-16.245l8.551-16.369a136.76 136.76 0 0 0 15.765-54.776c3.884-48.412 38.691-63.6 59.094-68.348a115.846 115.846 0 0 1 55.47 1.284 6.967 6.967 0 0 0 1.817.51c25.738 7.24 48.536 22.712 60.98 43.607ZM24.708 90.3h384.775a10.7 10.7 0 0 1 10.7 10.673v74.087a128.779 128.779 0 0 0-54.447.36c-41.04 9.546-66.5 39.012-69.858 80.843a123.389 123.389 0 0 1-14.224 49.425l-2.067 3.958H14.007V100.972A10.7 10.7 0 0 1 24.708 90.3Zm208.049 250.852a6.988 6.988 0 0 1-6.988 6.987h-17.348a6.987 6.987 0 0 1 0-13.974h17.348a6.987 6.987 0 0 1 6.988 6.987Zm-18.185-65.609h34.47a6.986 6.986 0 0 0 6.987-6.987v-130.62a6.987 6.987 0 0 0-6.987-6.987h-34.47a6.987 6.987 0 0 0-6.987 6.987v130.62a6.987 6.987 0 0 0 6.987 6.987Zm6.988-130.62h20.494v116.646H221.56ZM43.53 275.543h34.5a6.987 6.987 0 0 0 6.987-6.987v-71.149a6.988 6.988 0 0 0-6.987-6.988h-34.5a6.987 6.987 0 0 0-6.987 6.988v71.149a6.986 6.986 0 0 0 6.987 6.987Zm6.987-71.149H71.04v57.175H50.517Zm107.051 71.149h34.469a6.986 6.986 0 0 0 6.987-6.987V167.388a6.987 6.987 0 0 0-6.987-6.987h-34.469a6.988 6.988 0 0 0-6.988 6.987v101.168a6.987 6.987 0 0 0 6.988 6.987Zm6.987-101.168h20.494v87.194h-20.494Zm-63.992 101.168h34.469a6.986 6.986 0 0 0 6.987-6.987v-130.62a6.987 6.987 0 0 0-6.987-6.987h-34.469a6.988 6.988 0 0 0-6.988 6.987v130.62a6.987 6.987 0 0 0 6.988 6.987Zm6.987-130.62h20.495v116.646H107.55Zm310.992 73.044-2.654-10.509a6.986 6.986 0 0 0-5.82-5.209 79.594 79.594 0 0 0-22.139 0 6.988 6.988 0 0 0-5.829 5.21l-2.654 10.51a65.847 65.847 0 0 0-12.176 5.061l-9.305-5.568a6.991 6.991 0 0 0-7.827.442 82.1 82.1 0 0 0-15.645 15.648 6.992 6.992 0 0 0-.427 7.809l5.555 9.3a66.3 66.3 0 0 0-5.052 12.208l-10.482 2.619a6.987 6.987 0 0 0-5.234 5.833 82.046 82.046 0 0 0-.774 11.067 81 81 0 0 0 .774 11.1 6.988 6.988 0 0 0 5.234 5.833l10.482 2.619a66.339 66.339 0 0 0 5.052 12.209l-5.555 9.3a6.989 6.989 0 0 0 .441 7.827 83.077 83.077 0 0 0 15.631 15.63 6.992 6.992 0 0 0 7.827.441l9.305-5.567a65.746 65.746 0 0 0 12.176 5.06l2.654 10.51a6.989 6.989 0 0 0 5.829 5.211 82.665 82.665 0 0 0 22.139 0 6.987 6.987 0 0 0 5.82-5.21l2.654-10.509a65.856 65.856 0 0 0 12.2-5.061l9.306 5.567a6.989 6.989 0 0 0 7.827-.441 83.042 83.042 0 0 0 15.63-15.63 6.987 6.987 0 0 0 .442-7.827l-5.573-9.315a66.473 66.473 0 0 0 5.067-12.195l10.485-2.62a6.988 6.988 0 0 0 5.234-5.833 82.781 82.781 0 0 0 0-22.162 6.987 6.987 0 0 0-5.234-5.833l-10.485-2.62a66.444 66.444 0 0 0-5.067-12.195l5.573-9.315a6.987 6.987 0 0 0-.442-7.827 83.042 83.042 0 0 0-15.63-15.63 6.989 6.989 0 0 0-7.827-.442l-9.306 5.568a65.928 65.928 0 0 0-12.2-5.064Zm24.477 14a69 69 0 0 1 6.421 6.421l-5.164 8.635a6.987 6.987 0 0 0 .063 7.275 52.522 52.522 0 0 1 6.61 15.914 6.986 6.986 0 0 0 5.1 5.2l9.737 2.446a69.805 69.805 0 0 1 0 9.082l-9.738 2.446a6.991 6.991 0 0 0-5.1 5.2 52.549 52.549 0 0 1-6.61 15.915 6.985 6.985 0 0 0-.062 7.275l5.163 8.634a68.985 68.985 0 0 1-6.421 6.42l-8.634-5.164a6.987 6.987 0 0 0-7.3.078 52.058 52.058 0 0 1-15.9 6.6 6.988 6.988 0 0 0-5.194 5.1l-2.457 9.739a70.305 70.305 0 0 1-9.088 0l-2.457-9.737a6.987 6.987 0 0 0-5.194-5.1 51.972 51.972 0 0 1-15.87-6.6 6.985 6.985 0 0 0-7.3-.078L355 332.835a69.23 69.23 0 0 1-6.421-6.42l5.148-8.656a6.986 6.986 0 0 0-.075-7.253 52.513 52.513 0 0 1-6.582-15.915 6.991 6.991 0 0 0-5.1-5.2l-9.755-2.45a64.408 64.408 0 0 1 .002-9.074l9.752-2.45a6.987 6.987 0 0 0 5.1-5.2 52.486 52.486 0 0 1 6.581-15.917 6.992 6.992 0 0 0 .076-7.254l-5.155-8.665A68.473 68.473 0 0 1 355 231.97l8.637 5.166a6.979 6.979 0 0 0 7.3-.077 52 52 0 0 1 15.87-6.6 6.984 6.984 0 0 0 5.194-5.1l2.461-9.752a63.7 63.7 0 0 1 9.08 0l2.458 9.758a6.985 6.985 0 0 0 5.194 5.1 52.085 52.085 0 0 1 15.9 6.6 6.981 6.981 0 0 0 7.3.077Zm-44.025 9.812a40.62 40.62 0 1 0 40.635 40.606 40.652 40.652 0 0 0-40.635-40.601Zm0 67.265a26.646 26.646 0 1 1 26.66-26.659 26.675 26.675 0 0 1-26.66 26.664ZM268.275 135.9a6.987 6.987 0 0 1 6.987-6.987h68.712a6.987 6.987 0 1 1 0 13.974h-68.712a6.987 6.987 0 0 1-6.987-6.987Zm0 22.791a6.987 6.987 0 0 1 6.987-6.987h34.356a6.987 6.987 0 1 1 0 13.974h-34.356a6.987 6.987 0 0 1-6.987-6.992Zm0 22.818a6.987 6.987 0 0 1 6.987-6.987h34.356a6.988 6.988 0 0 1 0 13.975h-34.356a6.987 6.987 0 0 1-6.987-6.997Z" fill="#ffffff" opacity="1" data-original="#000000"></path></g></svg>