<svg xmlns="http://www.w3.org/2000/svg" version="1.1" xmlns:xlink="http://www.w3.org/1999/xlink" width="512" height="512" x="0" y="0" viewBox="0 0 64 64" style="enable-background:new 0 0 512 512" xml:space="preserve"><g><path d="M45 28H19c-.55 0-1 .45-1 1v32c0 .55.45 1 1 1h13c.55 0 1-.45 1-1s-.45-1-1-1H20V34h24v26h-8c-.55 0-1 .45-1 1s.45 1 1 1h9c.55 0 1-.45 1-1V29c0-.55-.45-1-1-1zm-1 4H20v-2h24z" fill="#ffffff" opacity="1" data-original="#000000"></path><path d="M61 2h-7c-.55 0-1 .45-1 1s.45 1 1 1h6v2H36V4h14c.55 0 1-.45 1-1s-.45-1-1-1H35c-.55 0-1 .45-1 1v22c0 .55.45 1 1 1s1-.45 1-1V8h24v26H49c-.55 0-1 .45-1 1s.45 1 1 1h12c.55 0 1-.45 1-1V3c0-.55-.45-1-1-1z" fill="#ffffff" opacity="1" data-original="#000000"></path><circle cx="32" cy="47" r="1" fill="#ffffff" opacity="1" data-original="#000000"></circle><circle cx="36" cy="47" r="1" fill="#ffffff" opacity="1" data-original="#000000"></circle><circle cx="40" cy="47" r="1" fill="#ffffff" opacity="1" data-original="#000000"></circle><circle cx="28" cy="47" r="1" fill="#ffffff" opacity="1" data-original="#000000"></circle><circle cx="24" cy="47" r="1" fill="#ffffff" opacity="1" data-original="#000000"></circle><path d="M40 14h16c.55 0 1-.45 1-1s-.45-1-1-1H40c-.55 0-1 .45-1 1s.45 1 1 1zM40 19h16c.55 0 1-.45 1-1s-.45-1-1-1H40c-.55 0-1 .45-1 1s.45 1 1 1zM40 24h16c.55 0 1-.45 1-1s-.45-1-1-1H40c-.55 0-1 .45-1 1s.45 1 1 1zM15 34H4v-6c0-.55-.45-1-1-1s-1 .45-1 1v7c0 .55.45 1 1 1h12c.55 0 1-.45 1-1s-.45-1-1-1zM3 25c.55 0 1-.45 1-1V8h24v17c0 .55.45 1 1 1s1-.45 1-1V3c0-.55-.45-1-1-1H3c-.55 0-1 .45-1 1v21c0 .55.45 1 1 1zM4 4h24v2H4z" fill="#ffffff" opacity="1" data-original="#000000"></path><path d="M24 12H8c-.55 0-1 .45-1 1s.45 1 1 1h16c.55 0 1-.45 1-1s-.45-1-1-1zM24 17H8c-.55 0-1 .45-1 1s.45 1 1 1h16c.55 0 1-.45 1-1s-.45-1-1-1zM24 22H8c-.55 0-1 .45-1 1s.45 1 1 1h16c.55 0 1-.45 1-1s-.45-1-1-1zM58 38c-.55 0-1 .45-1 1v9h-5.59l1.29-1.29a.996.996 0 1 0-1.41-1.41l-3 3a.996.996 0 0 0 0 1.41l3 3c.2.2.45.29.71.29s.51-.1.71-.29a.996.996 0 0 0 0-1.41l-1.29-1.29h6.59c.55 0 1-.45 1-1v-10c0-.55-.45-1-1-1zM12.71 45.29a.996.996 0 1 0-1.41 1.41l1.29 1.29H7v-9c0-.55-.45-1-1-1s-1 .45-1 1v10c0 .55.45 1 1 1h6.59l-1.29 1.29a.996.996 0 0 0 .71 1.7c.26 0 .51-.1.71-.29l3-3a.996.996 0 0 0 0-1.41l-3-3z" fill="#ffffff" opacity="1" data-original="#000000"></path></g></svg>