<svg width="91" height="37" viewBox="0 0 91 37" fill="none" xmlns="http://www.w3.org/2000/svg">
<path d="M8.29975 8.286V30.75H2.82775V8.286H8.29975ZM11.1773 21.79C11.1773 19.9553 11.5186 18.3447 12.2013 16.958C12.9053 15.5713 13.8546 14.5047 15.0493 13.758C16.2439 13.0113 17.5773 12.638 19.0493 12.638C20.2226 12.638 21.2893 12.8833 22.2493 13.374C23.2306 13.8647 23.9986 14.526 24.5533 15.358V7.07H30.0253V30.75H24.5533V28.19C24.0413 29.0433 23.3053 29.726 22.3453 30.238C21.4066 30.75 20.3079 31.006 19.0493 31.006C17.5773 31.006 16.2439 30.6327 15.0493 29.886C13.8546 29.118 12.9053 28.0407 12.2013 26.654C11.5186 25.246 11.1773 23.6247 11.1773 21.79ZM24.5533 21.822C24.5533 20.4567 24.1693 19.3793 23.4013 18.59C22.6546 17.8007 21.7373 17.406 20.6493 17.406C19.5613 17.406 18.6333 17.8007 17.8653 18.59C17.1186 19.358 16.7453 20.4247 16.7453 21.79C16.7453 23.1553 17.1186 24.2433 17.8653 25.054C18.6333 25.8433 19.5613 26.238 20.6493 26.238C21.7373 26.238 22.6546 25.8433 23.4013 25.054C24.1693 24.2647 24.5533 23.1873 24.5533 21.822ZM39.456 7.07V30.75H33.984V7.07H39.456ZM60.2535 21.534C60.2535 22.046 60.2215 22.5793 60.1575 23.134H47.7735C47.8588 24.2433 48.2108 25.0967 48.8295 25.694C49.4695 26.27 50.2482 26.558 51.1655 26.558C52.5308 26.558 53.4802 25.982 54.0135 24.83H59.8375C59.5388 26.0033 58.9948 27.0593 58.2055 27.998C57.4375 28.9367 56.4668 29.6727 55.2935 30.206C54.1202 30.7393 52.8082 31.006 51.3575 31.006C49.6082 31.006 48.0508 30.6327 46.6855 29.886C45.3202 29.1393 44.2535 28.0727 43.4855 26.686C42.7175 25.2993 42.3335 23.678 42.3335 21.822C42.3335 19.966 42.7068 18.3447 43.4535 16.958C44.2215 15.5713 45.2882 14.5047 46.6535 13.758C48.0188 13.0113 49.5868 12.638 51.3575 12.638C53.0855 12.638 54.6215 13.0007 55.9655 13.726C57.3095 14.4513 58.3548 15.486 59.1015 16.83C59.8695 18.174 60.2535 19.742 60.2535 21.534ZM54.6535 20.094C54.6535 19.1553 54.3335 18.4087 53.6935 17.854C53.0535 17.2993 52.2535 17.022 51.2935 17.022C50.3762 17.022 49.5975 17.2887 48.9575 17.822C48.3388 18.3553 47.9548 19.1127 47.8055 20.094H54.6535Z" fill="white"/>
<path d="M82.8819 13.9713H74.1175C72.628 13.9697 71.2001 13.3783 70.1469 12.327C69.0937 11.2757 68.5013 9.85036 68.4996 8.36361V8.3499C68.5015 6.8632 69.0939 5.43791 70.1471 4.38665C71.2002 3.3354 72.6281 2.744 74.1175 2.74219H82.8819C84.3713 2.744 85.7992 3.3354 86.8523 4.38665C87.9055 5.43791 88.4979 6.8632 88.4998 8.3499V8.36361C88.4981 9.85036 87.9057 11.2757 86.8525 12.327C85.7993 13.3783 84.3714 13.9697 82.8819 13.9713ZM74.1175 3.98835C72.9591 3.98983 71.8486 4.44983 71.0295 5.26746C70.2104 6.08508 69.7495 7.1936 69.748 8.3499V8.36361C69.7494 9.51996 70.2101 10.6286 71.0293 11.4462C71.8484 12.2639 72.959 12.7238 74.1175 12.7252H82.8819C84.0404 12.7238 85.151 12.2639 85.9701 11.4462C86.7893 10.6286 87.25 9.51996 87.2513 8.36361V8.3499C87.25 7.19355 86.7893 6.08494 85.9701 5.26727C85.151 4.44961 84.0404 3.98967 82.8819 3.98835H74.1175Z" fill="#D3FD40"/>
<path d="M74.7501 11.476C74.1319 11.4768 73.5274 11.2945 73.013 10.9522C72.4987 10.6099 72.0976 10.123 71.8605 9.55312C71.6234 8.98324 71.561 8.35597 71.6812 7.75067C71.8013 7.14537 72.0986 6.58924 72.5355 6.15265C72.9723 5.71606 73.5291 5.41862 74.1354 5.29796C74.7416 5.17731 75.3701 5.23886 75.9413 5.47483C76.5125 5.7108 77.0007 6.11058 77.3442 6.6236C77.6878 7.13662 77.8711 7.73982 77.8711 8.35689C77.8701 9.18318 77.5411 9.97541 76.9561 10.56C76.3711 11.1447 75.5779 11.474 74.7501 11.476ZM74.7501 6.48453C74.3788 6.48379 74.0156 6.59303 73.7066 6.79841C73.3975 7.00379 73.1564 7.29609 73.0138 7.6383C72.8713 7.98052 72.8336 8.35726 72.9056 8.72084C72.9777 9.08443 73.1561 9.41851 73.4185 9.6808C73.6808 9.94309 74.0152 10.1218 74.3793 10.1943C74.7434 10.2668 75.1209 10.2298 75.464 10.0881C75.807 9.94635 76.1003 9.70619 76.3065 9.39802C76.5128 9.08984 76.6228 8.72751 76.6227 8.35689C76.622 7.86105 76.4246 7.38566 76.0737 7.03476C75.7227 6.68386 75.2468 6.48602 74.7501 6.48453ZM82.2505 11.476C81.6325 11.4761 81.0283 11.2933 80.5143 10.9507C80.0004 10.608 79.5998 10.1209 79.3632 9.55096C79.1266 8.98102 79.0646 8.35385 79.1851 7.74876C79.3056 7.14366 79.6032 6.58783 80.0401 6.15155C80.4771 5.71526 81.0339 5.41813 81.6401 5.29773C82.2462 5.17733 82.8745 5.23906 83.4456 5.47512C84.0166 5.71118 84.5046 6.11097 84.848 6.62392C85.1914 7.13688 85.3747 7.73995 85.3747 8.35689C85.3737 9.18372 85.0442 9.97642 84.4586 10.5611C83.8729 11.1459 83.0789 11.4749 82.2505 11.476ZM82.2505 6.48453C81.8794 6.48441 81.5165 6.59417 81.2078 6.79993C80.8992 7.00569 80.6586 7.2982 80.5165 7.64047C80.3744 7.98273 80.3372 8.35938 80.4096 8.72276C80.482 9.08614 80.6607 9.41993 80.9231 9.68191C81.1856 9.94388 81.52 10.1223 81.884 10.1945C82.248 10.2668 82.6254 10.2296 82.9682 10.0878C83.3111 9.94596 83.6042 9.7058 83.8103 9.39769C84.0164 9.08959 84.1264 8.72738 84.1263 8.35689C84.1256 7.86051 83.9278 7.38465 83.5761 7.03366C83.2245 6.68267 82.7478 6.48519 82.2505 6.48453ZM87.5631 11.7876H87.0101C86.8445 11.7876 86.6858 11.7219 86.5687 11.6051C86.4516 11.4882 86.3859 11.3297 86.3859 11.1645C86.3859 10.9992 86.4516 10.8408 86.5687 10.7239C86.6858 10.6071 86.8445 10.5414 87.0101 10.5414H87.5631C88.1435 10.5414 88.7002 10.3113 89.1106 9.90157C89.521 9.4919 89.7516 8.93626 89.7516 8.35689C89.7516 7.77752 89.521 7.22188 89.1106 6.8122C88.7002 6.40252 88.1435 6.17237 87.5631 6.17237H87.0101C86.8445 6.17237 86.6858 6.10673 86.5687 5.98988C86.4516 5.87303 86.3859 5.71454 86.3859 5.54929C86.3859 5.38404 86.4516 5.22556 86.5687 5.10871C86.6858 4.99186 86.8445 4.92621 87.0101 4.92621H87.5631C88.4746 4.92621 89.3488 5.28766 89.9934 5.93103C90.6379 6.57441 91 7.44702 91 8.35689C91 9.26676 90.6379 10.1394 89.9934 10.7827C89.3488 11.4261 88.4746 11.7876 87.5631 11.7876ZM69.9899 11.7876H69.4369C68.5254 11.7876 67.6512 11.4261 67.0066 10.7827C66.3621 10.1394 66 9.26676 66 8.35689C66 7.44702 66.3621 6.57441 67.0066 5.93103C67.6512 5.28766 68.5254 4.92621 69.4369 4.92621H69.9899C70.1555 4.92621 70.3142 4.99186 70.4313 5.10871C70.5484 5.22556 70.6141 5.38404 70.6141 5.54929C70.6141 5.71454 70.5484 5.87303 70.4313 5.98988C70.3142 6.10673 70.1555 6.17237 69.9899 6.17237H69.4369C68.8565 6.17237 68.2998 6.40252 67.8894 6.8122C67.479 7.22188 67.2484 7.77752 67.2484 8.35689C67.2484 8.93626 67.479 9.4919 67.8894 9.90157C68.2998 10.3113 68.8565 10.5414 69.4369 10.5414H69.9899C70.1555 10.5414 70.3142 10.6071 70.4313 10.7239C70.5484 10.8408 70.6141 10.9992 70.6141 11.1645C70.6141 11.3297 70.5484 11.4882 70.4313 11.6051C70.3142 11.7219 70.1555 11.7876 69.9899 11.7876ZM83.1881 3.98848H73.8125C73.647 3.98848 73.4882 3.92283 73.3712 3.80598C73.2541 3.68913 73.1883 3.53065 73.1883 3.3654C73.1893 2.53945 73.5185 1.74761 74.1036 1.16357C74.6886 0.579536 75.4819 0.250989 76.3094 0.25H80.6913C81.5187 0.250989 82.312 0.579536 82.8971 1.16357C83.4822 1.74761 83.8113 2.53945 83.8123 3.3654C83.8123 3.53065 83.7465 3.68913 83.6295 3.80598C83.5124 3.92283 83.3536 3.98848 83.1881 3.98848ZM74.5422 2.74232H82.4578C82.3286 2.37772 82.0894 2.06208 81.773 1.83889C81.4566 1.6157 81.0787 1.49596 80.6913 1.49616H76.3094C75.922 1.49637 75.5441 1.61627 75.2277 1.83939C74.9113 2.06252 74.6719 2.37792 74.5422 2.74232ZM78.5003 32.0651C72.6415 32.0651 67.8726 27.3072 67.8726 21.459C67.8688 19.3306 68.5103 17.2508 69.7128 15.493C69.77 15.4092 69.8469 15.3405 69.9367 15.2931C70.0266 15.2456 70.1267 15.2208 70.2284 15.2207H86.7698C86.8715 15.2207 86.9718 15.2455 87.0617 15.2929C87.1517 15.3404 87.2287 15.4091 87.286 15.493C88.488 17.251 89.1292 19.3307 89.1255 21.459C89.1249 27.3072 84.3585 32.0651 78.5003 32.0651ZM70.5673 16.4669C69.6203 17.9602 69.1186 19.6917 69.121 21.459C69.121 26.62 73.3275 30.8189 78.4978 30.8189C83.6681 30.8189 87.874 26.62 87.874 21.459C87.8771 19.6919 87.3764 17.9604 86.4302 16.4669H70.5673Z" fill="#D3FD40"/>
<path d="M88.0018 18.963H68.996C68.8305 18.963 68.6717 18.8973 68.5547 18.7805C68.4376 18.6636 68.3718 18.5051 68.3718 18.3399C68.3718 18.1746 68.4376 18.0161 68.5547 17.8993C68.6717 17.7824 68.8305 17.7168 68.996 17.7168H88.0018C88.1673 17.7168 88.3261 17.7824 88.4432 17.8993C88.5602 18.0161 88.626 18.1746 88.626 18.3399C88.626 18.5051 88.5602 18.6636 88.4432 18.7805C88.3261 18.8973 88.1673 18.963 88.0018 18.963Z" fill="#D3FD40"/>
<path d="M78.4997 22.7064C78.4028 22.7064 78.3073 22.6839 78.2206 22.6406C78.1339 22.5974 78.0585 22.5346 78.0004 22.4572L75.1877 18.7137C75.0884 18.5815 75.0457 18.4154 75.0691 18.2518C75.0926 18.0882 75.1801 17.9406 75.3126 17.8414C75.445 17.7423 75.6115 17.6997 75.7753 17.7231C75.9392 17.7464 76.0871 17.8338 76.1864 17.966L78.4997 21.0447L80.813 17.966C80.9124 17.8338 81.0602 17.7464 81.2241 17.7231C81.388 17.6997 81.5545 17.7423 81.6869 17.8414C81.8194 17.9406 81.9069 18.0882 81.9303 18.2518C81.9537 18.4154 81.9111 18.5815 81.8118 18.7137L78.9991 22.4572C78.941 22.5346 78.8656 22.5974 78.7789 22.6406C78.6922 22.6839 78.5966 22.7064 78.4997 22.7064Z" fill="#D3FD40"/>
</svg>
