<svg xmlns="http://www.w3.org/2000/svg" version="1.1" xmlns:xlink="http://www.w3.org/1999/xlink" width="512" height="512" x="0" y="0" viewBox="0 0 64 64" style="enable-background:new 0 0 512 512" xml:space="preserve" class=""><g><path d="M63 39.777v-7.555l-2.802-.713a13.682 13.682 0 0 0-.4-.957l1.479-2.489-5.342-5.342-2.489 1.48a13.66 13.66 0 0 0-.956-.4L51.777 21H49V4c0-1.654-1.346-3-3-3H14.828c-.801 0-1.555.312-2.121.879L1.879 12.707A2.978 2.978 0 0 0 1 14.829V60c0 1.654 1.346 3 3 3h42c1.654 0 3-1.346 3-3v-9h2.777l.713-2.802c.318-.119.639-.252.956-.4l2.489 1.48 5.342-5.342-1.479-2.489c.147-.317.281-.637.4-.956zM13 4.414V13H4.414zM47 60c0 .551-.448 1-1 1H4c-.552 0-1-.449-1-1V15h12V3h31c.552 0 1 .449 1 1v17h-2.777l-.713 2.802c-.318.119-.639.252-.956.4l-2.489-1.48-5.342 5.342 1.479 2.489c-.147.318-.281.637-.4.957L33 32.223v7.555l2.802.713c.119.319.253.639.4.956l-1.479 2.489 5.342 5.342 2.489-1.48c.317.147.638.281.956.4L44.223 51H47zm11.764-16.379-3.143 3.143-2.095-1.246-.492.254c-.56.289-1.126.525-1.686.704l-.528.169L50.223 49h-4.445l-.598-2.354-.528-.169a10.978 10.978 0 0 1-1.686-.704l-.492-.254-2.095 1.246-3.143-3.143 1.246-2.096-.256-.493a11.006 11.006 0 0 1-.704-1.683l-.168-.528L35 38.223v-4.445l2.354-.599.168-.528c.179-.558.416-1.125.705-1.683l.255-.493-1.246-2.095 3.143-3.143 2.095 1.246.492-.254c.56-.289 1.126-.525 1.686-.704l.528-.169.597-2.356h4.445l.598 2.354.528.169c.56.179 1.126.415 1.686.704l.492.254 2.095-1.246 3.143 3.143-1.246 2.095.255.493c.289.559.526 1.125.705 1.683l.168.528 2.354.6v4.445l-2.354.599-.168.528a11.006 11.006 0 0 1-.704 1.683l-.256.493z" fill="#ffffff" opacity="1" data-original="#000000" class=""></path><path d="M48 27c-4.963 0-9 4.038-9 9s4.037 9 9 9 9-4.038 9-9-4.037-9-9-9zm0 16c-3.859 0-7-3.14-7-7s3.141-7 7-7 7 3.14 7 7-3.141 7-7 7z" fill="#ffffff" opacity="1" data-original="#000000" class=""></path><path d="M48 31c-2.757 0-5 2.243-5 5s2.243 5 5 5 5-2.243 5-5-2.243-5-5-5zm0 8c-1.654 0-3-1.346-3-3s1.346-3 3-3 3 1.346 3 3-1.346 3-3 3zM43 18h2V9h-9v2h5.586L30 22.586l-4-4L4.293 40.293l1.414 1.414L26 21.414l4 4 13-13zM5 59h6V43H5zm2-14h2v12H7zM13 59h6V39h-6zm2-18h2v16h-2zM21 59h6V35h-6zm2-22h2v20h-2z" fill="#ffffff" opacity="1" data-original="#000000" class=""></path><path d="M33 5H17v10h16zm-2 8H19V7h12zM5 17h2v2H5zM9 17h10v2H9zM5 21h14v2H5zM31 53h2v2h-2zM35 53h10v2H35zM31 57h14v2H31zM39 5h2v2h-2zM35 5h2v2h-2zM43 5h2v2h-2z" fill="#ffffff" opacity="1" data-original="#000000" class=""></path></g></svg>