<svg xmlns="http://www.w3.org/2000/svg" version="1.1" xmlns:xlink="http://www.w3.org/1999/xlink" width="512" height="512" x="0" y="0" viewBox="0 0 64 64" style="enable-background:new 0 0 512 512" xml:space="preserve" class=""><g><path d="M55.48 13.78a1.014 1.014 0 0 0-.306-.722L46.13 4.304A1.077 1.077 0 0 0 45.407 4H24.051a4.698 4.698 0 0 0-4.689 4.697v.212H18.17a4.703 4.703 0 0 0-4.69 4.707v29.78a8.769 8.769 0 0 0-4.96 7.89c.457 11.612 17.012 11.625 17.474 0a8.774 8.774 0 0 0-4.63-7.731V9.935a.078.078 0 0 0 0-.049V8.697a2.694 2.694 0 0 1 2.687-2.695h20.364l.008 3.057c-.084 2.799 1.812 5.793 4.69 5.71l4.364.008v33.451a2.694 2.694 0 0 1-2.687 2.696H27.88a1 1 0 0 0 0 2.001h19.716v.213a2.699 2.699 0 0 1-2.687 2.704H27.88a1.001 1.001 0 0 0 .001 2.002h17.03a4.716 4.716 0 0 0 4.687-4.919h1.193a4.698 4.698 0 0 0 4.689-4.697c.003-.002-.004-34.445 0-34.448zM23.993 51.286a6.757 6.757 0 0 1-6.735 6.763c-7.492-.106-9.275-10.383-2.391-13.077a6.767 6.767 0 0 1 9.126 6.314zm-6.735-8.764a8.713 8.713 0 0 0-1.775.182V13.616a2.699 2.699 0 0 1 2.687-2.705h1.192V42.79a8.67 8.67 0 0 0-2.104-.268zm29.72-31.14c-.66-1.007-.558-2.78-.557-4.01l5.58 5.4-2.885-.005a2.367 2.367 0 0 1-2.137-1.384z" fill="#ffffff" opacity="1" data-original="#000000"></path><path d="m27.809 47.264 2.086-.453.647 2.058a1.392 1.392 0 0 0 2.512.281l.897-1.536c.755-1.292 1.748-2.99 2.515-4.306l3.378 5.83a1.39 1.39 0 0 0 2.516-.279l.644-2.05 2.07.441a1.389 1.389 0 0 0 1.505-2.04l-3.726-6.403a7.589 7.589 0 1 0-12.806-.001l-3.718 6.391a1.395 1.395 0 0 0 1.48 2.067zm15.05-2.533a1.398 1.398 0 0 0-1.598.949l-.39 1.239-2.757-4.762a7.558 7.558 0 0 0 3.364-1.734l2.665 4.582zm-6.409-15.59c7.383.234 7.381 10.97 0 11.204-7.383-.235-7.382-10.971 0-11.205zm-5.028 11.281a7.559 7.559 0 0 0 3.394 1.742c-.85 1.46-1.931 3.306-2.784 4.767l-.39-1.24a1.392 1.392 0 0 0-1.617-.956l-1.272.275z" fill="#ffffff" opacity="1" data-original="#000000"></path><path d="M34.821 37.628a1.007 1.007 0 0 0 1.52.111l4.158-4.217a1 1 0 0 0-1.425-1.405l-3.332 3.38-1.385-1.892a1.001 1.001 0 0 0-1.615 1.183zM25.531 10.955h14.743a1.001 1.001 0 0 0 0-2.002H25.531a1.001 1.001 0 0 0 0 2.002zM25.531 17.58h19.205a1.001 1.001 0 0 0 0-2.002H25.531a1.001 1.001 0 0 0 0 2.002zM25.531 24.204h23.866a1.001 1.001 0 0 0 0-2.001H25.531a1.001 1.001 0 0 0 0 2.001zM16.134 53.121l-2.057-2.604a1.001 1.001 0 0 0-1.572 1.24l2.763 3.497a1.008 1.008 0 0 0 1.501.08l5.527-5.649a1.001 1.001 0 0 0-1.431-1.4z" fill="#ffffff" opacity="1" data-original="#000000"></path></g></svg>