<svg id="Layer_1" enable-background="new 0 0 50 50" height="512" viewBox="0 0 50 50" width="512" xmlns="http://www.w3.org/2000/svg"><g><g><path d="m7.98 2.84h34.2v44.32h-34.2z" fill="#f4f4f4" transform="matrix(-1 0 0 -1 50.17 50)"/><path d="m42.19 47.66h-34.21c-.28 0-.5-.22-.5-.5v-44.32c0-.28.22-.5.5-.5h34.2c.28 0 .5.22.5.5v44.32c.01.28-.22.5-.49.5zm-33.71-1h33.2v-43.32h-33.2z" fill="#682f2a"/></g><g><path d="m4.74 6.07h3.24v37.85h-3.24z" fill="#e5e5e5"/><path d="m7.98 44.43h-3.24c-.28 0-.5-.22-.5-.5v-37.86c0-.28.22-.5.5-.5h3.24c.28 0 .5.22.5.5v37.85c0 .28-.22.51-.5.51zm-2.74-1h2.24v-36.86h-2.24z" fill="#682f2a"/></g><g><path d="m1.5 8.77h3.24v32.45h-3.24z" fill="#cccaca"/><path d="m4.74 41.73h-3.24c-.28 0-.5-.22-.5-.5v-32.46c0-.28.22-.5.5-.5h3.24c.28 0 .5.22.5.5v32.46c0 .27-.22.5-.5.5zm-2.74-1h2.24v-31.46h-2.24z" fill="#682f2a"/></g><g><path d="m13.36 36.36h3.74v6.81h-3.74z" fill="#fa4968"/><path d="m17.1 43.68h-3.74c-.28 0-.5-.22-.5-.5v-6.81c0-.28.22-.5.5-.5h3.74c.28 0 .5.22.5.5v6.81c0 .27-.23.5-.5.5zm-3.24-1h2.74v-5.81h-2.74z" fill="#682f2a"/></g><g><path d="m19.93 33.84h3.74v9.33h-3.74z" fill="#ffb95c"/><path d="m23.67 43.68h-3.74c-.28 0-.5-.22-.5-.5v-9.33c0-.28.22-.5.5-.5h3.74c.28 0 .5.22.5.5v9.33c0 .27-.22.5-.5.5zm-3.24-1h2.74v-8.33h-2.74z" fill="#682f2a"/></g><g><path d="m26.5 37.68h3.74v5.5h-3.74z" fill="#6cd8d5"/><path d="m30.24 43.68h-3.74c-.28 0-.5-.22-.5-.5v-5.5c0-.28.22-.5.5-.5h3.74c.28 0 .5.22.5.5v5.5c0 .27-.22.5-.5.5zm-3.24-1h2.74v-4.5h-2.74z" fill="#682f2a"/></g><g><path d="m33.07 31.59h3.74v11.59h-3.74z" fill="#559aff"/><path d="m36.81 43.68h-3.74c-.28 0-.5-.22-.5-.5v-11.59c0-.28.22-.5.5-.5h3.74c.28 0 .5.22.5.5v11.59c0 .27-.22.5-.5.5zm-3.24-1h2.74v-10.59h-2.74z" fill="#682f2a"/></g><g><path d="m25.25 16.2c-.03 0-.06 0-.1-.01-.13-.03-.24-.1-.32-.21l-3.71-5.54-6.17 4.15c-.23.15-.54.09-.69-.14s-.09-.54.14-.69l6.58-4.43c.11-.07.24-.1.38-.08.13.03.24.1.32.21l3.71 5.54 8.47-5.7c.23-.15.54-.09.69.14s.09.54-.14.69l-8.89 5.98c-.07.06-.17.09-.27.09z" fill="#682f2a"/></g><g><ellipse cx="21.15" cy="9.79" fill="#ffb95c" rx="1.77" ry="1.77" transform="matrix(.072 -.997 .997 .072 9.876 30.181)"/><path d="m21.15 12.06c-.15 0-.3-.01-.44-.04-1.23-.24-2.03-1.44-1.79-2.67.12-.6.46-1.11.96-1.45s1.11-.46 1.7-.34c1.23.24 2.03 1.44 1.79 2.67-.12.6-.46 1.11-.96 1.45-.37.25-.81.38-1.26.38zm0-3.55c-.25 0-.49.07-.71.22-.28.19-.47.48-.54.81-.14.69.31 1.36 1 1.49.33.06.67 0 .95-.19s.47-.48.54-.81c.14-.69-.31-1.36-1-1.49-.08-.02-.16-.03-.24-.03z" fill="#682f2a"/></g><g><ellipse cx="25.53" cy="15.42" fill="#6cd8d5" rx="1.77" ry="1.77" transform="matrix(.072 -.997 .997 .072 8.327 39.777)"/><path d="m25.53 17.69c-.15 0-.29-.01-.44-.04-1.23-.24-2.03-1.44-1.79-2.67.12-.6.46-1.11.96-1.45s1.11-.46 1.7-.34c1.23.24 2.03 1.44 1.79 2.67-.12.6-.46 1.11-.96 1.45-.37.25-.81.38-1.26.38zm0-3.55c-.25 0-.49.07-.7.22-.28.19-.47.48-.54.81-.14.69.31 1.36 1 1.49.33.06.67 0 .95-.19s.47-.48.54-.81c.14-.69-.31-1.36-1-1.49-.09-.02-.17-.03-.25-.03z" fill="#682f2a"/></g><g><ellipse cx="34.14" cy="9.72" fill="#559aff" rx="1.77" ry="1.77" transform="matrix(.072 -.997 .997 .072 22 43.077)"/><path d="m34.14 12c-.15 0-.3-.01-.44-.04-1.23-.24-2.03-1.44-1.79-2.67.12-.6.46-1.11.96-1.45s1.11-.46 1.7-.34 1.11.46 1.45.96.46 1.11.34 1.71c-.12.6-.46 1.11-.96 1.45-.38.24-.81.38-1.26.38zm0-3.55c-.25 0-.49.07-.7.22-.28.19-.47.48-.54.81-.14.69.31 1.36 1 1.49.33.07.67 0 .95-.19s.47-.48.54-.81c.07-.33 0-.67-.19-.96-.2-.28-.48-.47-.82-.54-.08-.01-.16-.02-.24-.02z" fill="#682f2a"/></g><g><ellipse cx="14.87" cy="13.78" fill="#fa4968" rx="1.77" ry="1.77" transform="matrix(.072 -.997 .997 .072 .061 27.62)"/><path d="m14.87 16.05c-.14 0-.29-.01-.44-.04-1.23-.24-2.03-1.44-1.79-2.67.12-.6.46-1.11.96-1.45s1.11-.46 1.7-.34c1.23.24 2.03 1.44 1.79 2.67-.21 1.08-1.16 1.83-2.22 1.83zm-.01-3.55c-.25 0-.49.07-.7.22-.28.19-.47.48-.54.81-.14.69.31 1.36 1 1.49.68.13 1.35-.31 1.49-1 .14-.69-.31-1.36-1-1.49-.08-.02-.16-.03-.25-.03z" fill="#682f2a"/></g><g><path d="m25.56 21.51h-5.7c-.28 0-.5-.22-.5-.5s.22-.5.5-.5h5.7c.28 0 .5.22.5.5s-.22.5-.5.5z" fill="#e5e5e5"/></g><g><path d="m17.41 21.51h-4.25c-.28 0-.5-.22-.5-.5s.22-.5.5-.5h4.25c.28 0 .5.22.5.5s-.22.5-.5.5z" fill="#e5e5e5"/></g><g><path d="m29.14 23.8h-5.27c-.28 0-.5-.22-.5-.5s.22-.5.5-.5h5.27c.28 0 .5.22.5.5s-.22.5-.5.5z" fill="#e5e5e5"/></g><g><path d="m21.33 23.8h-8.18c-.28 0-.5-.22-.5-.5s.22-.5.5-.5h8.18c.28 0 .5.22.5.5s-.22.5-.5.5z" fill="#e5e5e5"/></g><g><path d="m25.16 26.09h-4.93c-.28 0-.5-.22-.5-.5s.22-.5.5-.5h4.93c.28 0 .5.22.5.5s-.23.5-.5.5z" fill="#e5e5e5"/></g><g><path d="m17.75 26.09h-4.59c-.28 0-.5-.22-.5-.5s.22-.5.5-.5h4.59c.28 0 .5.22.5.5s-.23.5-.5.5z" fill="#e5e5e5"/></g><g><path d="m29.14 28.38h-4.93c-.28 0-.5-.22-.5-.5s.22-.5.5-.5h4.93c.28 0 .5.22.5.5s-.22.5-.5.5z" fill="#e5e5e5"/></g><g><path d="m21.7 28.38h-8.54c-.28 0-.5-.22-.5-.5s.22-.5.5-.5h8.54c.28 0 .5.22.5.5s-.22.5-.5.5z" fill="#e5e5e5"/></g><g><path d="m18.59 30.67h-5.43c-.28 0-.5-.22-.5-.5s.22-.5.5-.5h5.43c.28 0 .5.22.5.5s-.22.5-.5.5z" fill="#e5e5e5"/></g><g><path d="m41.73 28.17h2v5.96h-2z" fill="#425060" transform="matrix(-.939 .343 -.343 -.939 93.556 45.744)"/><path d="m42.81 34.79c-.07 0-.14-.02-.21-.05-.12-.06-.21-.16-.26-.28l-2.04-5.6c-.09-.26.04-.55.3-.64l1.88-.69c.12-.04.26-.04.38.02s.21.16.26.28l2.04 5.6c.09.26-.04.55-.3.64l-1.88.69c-.05.02-.11.03-.17.03zm-1.4-5.79 1.7 4.66.94-.34-1.7-4.66z" fill="#682f2a"/></g><g><path d="m42.96 40.01-2.18-7.71 4.17-1.52 3.3 7.31c.68 1.5-.06 3.25-1.6 3.82-1.55.55-3.24-.32-3.69-1.9z" fill="#616b77"/><path d="m45.68 42.56c-.52 0-1.04-.12-1.51-.36-.82-.42-1.44-1.17-1.69-2.06l-2.18-7.71c-.07-.25.06-.52.31-.61l4.17-1.52c.25-.09.52.02.63.26l3.3 7.31c.38.84.39 1.81.03 2.66s-1.06 1.52-1.92 1.83c-.37.14-.76.2-1.14.2zm-2.24-2.69c.18.63.6 1.14 1.18 1.44s1.24.34 1.85.11c.61-.22 1.09-.68 1.34-1.28s.25-1.26-.02-1.86l-3.1-6.88-3.3 1.21z" fill="#682f2a"/></g><g><ellipse cx="39.44" cy="21.15" fill="#616b77" rx="8.44" ry="8.44" transform="matrix(.259 -.966 .966 .259 8.795 53.77)"/><path d="m39.46 30.1c-.56 0-1.13-.05-1.69-.16-2.34-.45-4.37-1.78-5.72-3.76-2.77-4.08-1.7-9.65 2.37-12.42 1.97-1.34 4.35-1.84 6.7-1.39 2.34.45 4.37 1.78 5.72 3.76 2.77 4.08 1.7 9.65-2.37 12.42-1.51 1.02-3.24 1.55-5.01 1.55zm-.03-16.89c-1.58 0-3.11.47-4.45 1.38-3.62 2.46-4.56 7.41-2.11 11.03 1.19 1.75 2.99 2.94 5.08 3.34 2.08.4 4.19-.04 5.95-1.23 3.62-2.46 4.57-7.41 2.11-11.03-1.19-1.75-2.99-2.94-5.08-3.34-.5-.1-1-.15-1.5-.15z" fill="#682f2a"/></g><g><ellipse cx="39.44" cy="21.15" fill="#8cf2ed" rx="5.91" ry="5.91" transform="matrix(.259 -.966 .966 .259 8.795 53.77)"/><path d="m39.45 27.57c-.4 0-.81-.04-1.21-.12-1.68-.32-3.14-1.28-4.1-2.69-1.98-2.92-1.22-6.92 1.7-8.91 1.42-.96 3.12-1.32 4.8-1s3.14 1.28 4.1 2.69c1.98 2.92 1.22 6.92-1.7 8.91-1.08.74-2.32 1.12-3.59 1.12zm-.02-11.83c-1.07 0-2.12.32-3.03.94-2.47 1.68-3.11 5.05-1.44 7.52.81 1.2 2.04 2 3.46 2.27s2.86-.03 4.05-.84c2.47-1.68 3.11-5.05 1.44-7.52-.81-1.2-2.04-2-3.46-2.27-.34-.07-.68-.1-1.02-.1z" fill="#682f2a"/></g></g></svg>