<svg xmlns="http://www.w3.org/2000/svg" version="1.1" xmlns:xlink="http://www.w3.org/1999/xlink" width="512" height="512" x="0" y="0" viewBox="0 0 50 50" style="enable-background:new 0 0 512 512" xml:space="preserve" class=""><g><path d="M42.2 47.7H8c-.3 0-.5-.2-.5-.5V2.8c0-.3.2-.5.5-.5h34.2c.3 0 .5.2.5.5v10c0 .3-.2.5-.5.5s-.5-.2-.5-.5V3.3H8.5v43.3h33.2v-9c0-.3.2-.5.5-.5s.5.2.5.5v9.5c0 .3-.2.6-.5.6z" fill="#ffffff" opacity="1" data-original="#000000" class=""></path><path d="M8 44.4H4.7c-.3 0-.5-.2-.5-.5V6.1c0-.3.2-.5.5-.5H8c.3 0 .5.2.5.5V44c0 .2-.2.4-.5.4zm-2.8-1h2.2V6.6H5.2z" fill="#ffffff" opacity="1" data-original="#000000" class=""></path><path d="M4.7 41.7H1.5c-.3 0-.5-.2-.5-.5V8.8c0-.3.2-.5.5-.5h3.2c.3 0 .5.2.5.5v32.4c0 .3-.2.5-.5.5zm-2.7-1h2.2V9.3H2zM17.1 43.7h-3.7c-.3 0-.5-.2-.5-.5v-6.8c0-.3.2-.5.5-.5h3.7c.3 0 .5.2.5.5v6.8c0 .2-.2.5-.5.5zm-3.2-1h2.7v-5.8h-2.7zM23.7 43.7H20c-.3 0-.5-.2-.5-.5v-9.3c0-.3.2-.5.5-.5h3.7c.3 0 .5.2.5.5v9.3c0 .2-.3.5-.5.5zm-3.3-1h2.7v-8.3h-2.7zM30.2 43.7h-3.7c-.3 0-.5-.2-.5-.5v-5.5c0-.3.2-.5.5-.5h3.7c.3 0 .5.2.5.5v5.5c0 .3-.2.5-.5.5zm-3.2-1h2.7v-4.5H27zM36.8 43.7h-3.7c-.3 0-.5-.2-.5-.5V31.6c0-.3.2-.5.5-.5h3.7c.3 0 .5.2.5.5v11.6c0 .3-.2.5-.5.5zm-3.2-1h2.7V32.1h-2.7zM27 15c-.2 0-.3-.1-.4-.2-.2-.2-.1-.5.1-.7l5.6-3.8c.2-.2.5-.1.7.1s.1.5-.1.7l-5.6 3.8c-.1.1-.2.1-.3.1zM16.4 13.5c-.2 0-.3-.1-.4-.2-.2-.2-.1-.5.1-.7l3.3-2.2c.2-.2.5-.1.7.1s.1.5-.1.7l-3.3 2.2c-.1.1-.2.1-.3.1zM24.2 14.7c-.2 0-.3-.1-.4-.2l-2-3c-.2-.2-.1-.5.1-.7s.5-.1.7.1l2 3c.2.2.1.5-.1.7-.1.1-.2.1-.3.1z" fill="#ffffff" opacity="1" data-original="#000000" class=""></path><path d="M21.2 12.1h-.4c-.6-.1-1.1-.5-1.4-1s-.5-1.1-.3-1.7c.1-.6.5-1.1 1-1.4 1-.7 2.5-.4 3.1.6.3.5.5 1.1.3 1.7-.1.6-.5 1.1-1 1.4-.5.2-.9.4-1.3.4zm-.8-3.4c-.3.2-.5.5-.5.8-.1.3 0 .7.2 1s.5.5.8.5c.3.1.7 0 1-.2s.5-.5.5-.8c.1-.3 0-.7-.2-1-.4-.5-1.2-.7-1.8-.3zM25.5 17.7h-.4c-.6-.1-1.1-.5-1.4-1s-.5-1.1-.3-1.7c.1-.6.5-1.1 1-1.4 1-.7 2.5-.4 3.1.6.7 1 .4 2.5-.6 3.1-.5.3-.9.4-1.4.4zm0-3.6c-.2 0-.5.1-.7.2-.3.2-.5.5-.5.8-.1.3 0 .7.2 1s.5.5.8.5c.3.1.7 0 1-.2.6-.4.7-1.2.3-1.8-.3-.3-.7-.5-1.1-.5zM34.1 12h-.4c-.6-.1-1.1-.5-1.4-1s-.5-1.1-.3-1.7c.1-.6.5-1.1 1-1.4 1-.7 2.5-.4 3.1.6.7 1 .4 2.5-.6 3.1-.5.3-.9.4-1.4.4zm0-3.6c-.2 0-.5.1-.7.2-.3.2-.5.5-.5.8-.1.3 0 .7.2 1s.5.5.8.5c.3.1.7 0 1-.2.6-.4.7-1.2.3-1.8-.3-.3-.7-.5-1.1-.5zM14.9 16h-.4c-.6-.1-1.1-.5-1.4-1s-.5-1.1-.3-1.7c.1-.6.5-1.1 1-1.4.5-.3 1.1-.5 1.7-.3.6.1 1.1.5 1.4 1 .7 1 .4 2.5-.6 3.1-.5.2-1 .3-1.4.3zm0-3.5c-.2 0-.5.1-.7.2-.3.2-.5.5-.5.8-.1.3 0 .7.2 1 .4.6 1.2.7 1.8.3s.7-1.2.3-1.8c-.2-.3-.5-.5-.8-.5h-.3zM25.6 21.5h-5.7c-.3 0-.5-.2-.5-.5s.2-.5.5-.5h5.7c.3 0 .5.2.5.5s-.3.5-.5.5zM17.4 21.5h-4.2c-.3 0-.5-.2-.5-.5s.2-.5.5-.5h4.2c.3 0 .5.2.5.5s-.2.5-.5.5zM29.1 23.8h-5.3c-.3 0-.5-.2-.5-.5s.2-.5.5-.5h5.3c.3 0 .5.2.5.5s-.2.5-.5.5zM21.3 23.8h-8.2c-.3 0-.5-.2-.5-.5s.2-.5.5-.5h8.2c.3 0 .5.2.5.5s-.2.5-.5.5zM25.2 26.1h-4.9c-.3 0-.5-.2-.5-.5s.2-.5.5-.5h4.9c.3 0 .5.2.5.5s-.3.5-.5.5zM17.8 26.1h-4.6c-.3 0-.5-.2-.5-.5s.2-.5.5-.5h4.6c.3 0 .5.2.5.5s-.3.5-.5.5zM29.1 28.4h-4.9c-.3 0-.5-.2-.5-.5s.2-.5.5-.5h4.9c.3 0 .5.2.5.5s-.2.5-.5.5zM21.7 28.4h-8.5c-.3 0-.5-.2-.5-.5s.2-.5.5-.5h8.5c.3 0 .5.2.5.5s-.2.5-.5.5zM18.6 30.7h-5.4c-.3 0-.5-.2-.5-.5s.2-.5.5-.5h5.4c.3 0 .5.2.5.5s-.2.5-.5.5zM41.9 32.4c-.2 0-.4-.1-.5-.3l-.9-2.4c-.1-.1 0-.3 0-.4.1-.1.2-.2.3-.2.6-.1 1.2-.3 1.8-.6.1-.1.3-.1.4 0l.3.3.9 2.4v.4l-.3.3-1.9.7c0-.2 0-.2-.1-.2zm-.2-2.6.5 1.4.9-.3-.5-1.4-.9.3z" fill="#ffffff" opacity="1" data-original="#000000" class=""></path><path d="M45.7 42.6c-.5 0-1-.1-1.5-.4-.8-.4-1.4-1.2-1.7-2.1l-2.2-7.7c-.1-.3.1-.5.3-.6l4.2-1.5c.2-.1.5 0 .6.3l3.3 7.3c.4.8.4 1.8 0 2.7s-1.1 1.5-1.9 1.8c-.3.1-.7.2-1.1.2zm-2.3-2.7c.2.6.6 1.1 1.2 1.4s1.2.3 1.9.1c.6-.2 1.1-.7 1.3-1.3.3-.6.2-1.3 0-1.9l-3.1-6.9-3.3 1.2zM39.5 30.1c-.8 0-1.6-.1-2.3-.3-2.3-.6-4.2-2.1-5.4-4.2s-1.5-4.5-.9-6.8 2.1-4.2 4.2-5.4 4.5-1.5 6.8-.9 4.2 2.1 5.4 4.2 1.5 4.5.9 6.8-2.1 4.2-4.2 5.4c-1.5.8-3 1.2-4.5 1.2zm-.1-16.9c-1.4 0-2.7.4-4 1.1-1.8 1.1-3.2 2.8-3.7 4.8s-.3 4.2.8 6 2.8 3.2 4.8 3.7c2 .6 4.2.3 6-.8s3.2-2.8 3.7-4.8.3-4.2-.8-6-2.8-3.2-4.8-3.7c-.6-.2-1.3-.3-2-.3z" fill="#ffffff" opacity="1" data-original="#000000" class=""></path><path d="M39.4 27.6c-.4 0-.8 0-1.2-.1-3.5-.7-5.7-4-5.1-7.5.7-3.5 4-5.8 7.5-5.1 1.7.3 3.1 1.3 4.1 2.7s1.3 3.1 1 4.8-1.3 3.1-2.7 4.1c-1 .7-2.3 1.1-3.6 1.1zm-5.3-7.5c-.6 2.9 1.4 5.8 4.3 6.3 1.4.3 2.9 0 4-.8 1.2-.8 2-2 2.3-3.5.3-1.4 0-2.9-.8-4.1s-2-2-3.5-2.3c-2.9-.4-5.7 1.5-6.3 4.4z" fill="#ffffff" opacity="1" data-original="#000000" class=""></path></g></svg>