<svg xmlns="http://www.w3.org/2000/svg" version="1.1" xmlns:xlink="http://www.w3.org/1999/xlink" width="512" height="512" x="0" y="0" viewBox="0 0 512 512" style="enable-background:new 0 0 512 512" xml:space="preserve" class=""><g><path fill-rule="evenodd" d="M360.438 25.873h-54.354l.002.127v18.327h65.877zm-33.083 97.835h-21.269v7.867h24.939zm50.589 116.386h60.138c4.4 0 8 3.6 8 8v31.166c0 4.4-3.6 8-8 8h-8.464v39.051L442.936 334a7.981 7.981 0 0 1-8 13.812l-5.318-3.07v11.503l13.318 7.689a7.981 7.981 0 0 1-8 13.812l-5.318-3.07v11.521l13.287 7.671a7.967 7.967 0 0 1-7.937 13.813l-9.729-5.617-17.226 24.397-21.605-30.599v-16.216l-13.286-7.671a7.967 7.967 0 0 1 7.937-13.813l5.349 3.088v-11.52l-13.318-7.689a7.981 7.981 0 0 1 8-13.812l5.318 3.07v-11.503l-13.318-7.689a7.981 7.981 0 0 1 8-13.812l5.318 3.07V287.26h-8.464c-4.4 0-8-3.6-8-8v-31.166c0-4.4 3.6-8 8-8zM146.11 372.003c-5.398 2.863-11.555 4.486-18.089 4.486s-12.691-1.622-18.089-4.486l-7.362 46.736h50.903zM28.655 415.378h3.397v-84.217c-7.203-2.515-12.371-9.367-12.371-17.427 0-10.192 8.263-18.455 18.455-18.455 9.027 0 16.538 6.481 18.139 15.044l53.319 14.287c4.114-5.729 10.834-9.462 18.426-9.462 11.769 0 21.443 8.969 22.561 20.444L208 350.977l2.004-7.479a4.011 4.011 0 0 1 4.899-2.828l13.978 3.745a4.01 4.01 0 0 1 2.828 4.899l-8.143 30.392a4.011 4.011 0 0 1-4.899 2.828l-.489-.131v43.912h3.528c6.96 0 12.655 5.695 12.655 12.655v17.027h-45.366V438.97c0-6.96 5.695-12.655 12.655-12.655h3.529v-47.396l-.489-.131a4.01 4.01 0 0 1-2.828-4.899l2.004-7.479-57.419-15.385c-4.115 5.729-10.834 9.462-18.426 9.462-11.769 0-21.443-8.969-22.562-20.444l-53.322-14.287a18.496 18.496 0 0 1-7.085 5.091v84.53h3.66c6.96 0 12.655 5.695 12.655 12.655v27.966H16v-27.966c0-6.96 5.694-12.654 12.655-12.654zm64.781 19.36c-2.2 0-4 1.8-4 4v13.26c0 2.2 1.8 4 4 4h69.167c2.2 0 4-1.8 4-4v-13.26c0-2.2-1.8-4-4-4zM24.263 267.635a7.978 7.978 0 0 1-15.938.75 252 252 0 0 1 0-24.769 7.978 7.978 0 0 1 15.938.75 240.144 240.144 0 0 0 0 23.269zm182.985 215.199c4.315.932 7.057 5.185 6.125 9.5s-5.185 7.057-9.5 6.125a253.662 253.662 0 0 1-23.951-6.436 7.975 7.975 0 1 1 4.875-15.187 238.375 238.375 0 0 0 22.451 5.998zm60.387 4.904a7.978 7.978 0 0 1 .75 15.938c-4.439.217-20.332.216-24.769-.001a7.978 7.978 0 0 1 .75-15.938c7.695.376 15.574.376 23.269.001zm59.569-10.902a7.975 7.975 0 1 1 4.875 15.187 253.657 253.657 0 0 1-23.951 6.435 7.992 7.992 0 1 1-3.375-15.625 238.45 238.45 0 0 0 22.451-5.997zm155.63-172.084c.932-4.315 5.185-7.057 9.5-6.125s7.057 5.185 6.125 9.5a253.662 253.662 0 0 1-6.436 23.951 7.975 7.975 0 1 1-15.187-4.875 238.293 238.293 0 0 0 5.998-22.451zm4.903-60.387a7.978 7.978 0 0 1 15.938-.75c.406 8.314.406 16.456-.001 24.77a7.978 7.978 0 0 1-15.938-.75c.379-7.74.379-15.53.001-23.27zm-10.901-59.569a7.975 7.975 0 1 1 15.187-4.875 253.355 253.355 0 0 1 6.435 23.951 7.992 7.992 0 1 1-15.625 3.375 238.45 238.45 0 0 0-5.997-22.451zm-25.968-54.737a7.984 7.984 0 0 1 13.437-8.625 254.985 254.985 0 0 1 12.384 21.458 7.98 7.98 0 0 1-14.188 7.312 236.686 236.686 0 0 0-11.633-20.145zm-39.206-46.143a7.965 7.965 0 0 1 10.687-11.813 251.268 251.268 0 0 1 17.547 17.547 7.965 7.965 0 0 1-11.813 10.687 241.114 241.114 0 0 0-16.421-16.421zM83.916 100.338a7.965 7.965 0 0 1-11.813-10.687A251.703 251.703 0 0 1 89.65 72.104a7.965 7.965 0 0 1 10.687 11.813 241.114 241.114 0 0 0-16.421 16.421zm-34.419 49.866a7.982 7.982 0 0 1-14.188-7.312 256.89 256.89 0 0 1 12.385-21.458 7.983 7.983 0 0 1 11.031-2.406 7.983 7.983 0 0 1 2.406 11.031 236.852 236.852 0 0 0-11.634 20.145zm-20.331 57.044c-.932 4.315-5.185 7.057-9.5 6.125s-7.057-5.185-6.125-9.5a253.743 253.743 0 0 1 6.436-23.951 7.975 7.975 0 1 1 15.187 4.875 238.598 238.598 0 0 0-5.998 22.451zm378.847 47.434c-4.968 0-8.995 4.027-8.995 8.995s4.027 8.995 8.995 8.995a8.995 8.995 0 0 0 0-17.99zm-67.986 102.237v71.095c0 37.393 30.594 67.986 67.987 67.986C445.406 496 476 465.404 476 428.014v-71.095h-19.398v47.509l-48.589 68.816-48.588-68.816v-47.509zM131.111 147.575h22.445v21.33H93.444c7.726-12.758 21.743-21.33 37.667-21.33zm38.444 0h58.444v21.33h-58.444zm74.444 0h58.444v21.33h-58.444zm74.445 0h22.445c15.923 0 29.94 8.572 37.667 21.33h-60.111v-21.33zm65.936 37.33a43.82 43.82 0 0 1 .508 6.67v14.66h-66.445v-21.33zm-81.936 21.33H244v-21.33h58.444zm-74.445 0h-58.444v-21.33h58.444zm-74.444 0H87.111v-14.66c0-2.266.174-4.494.508-6.67h65.936zm18-190.235c-5.5 0-10 4.5-10 10v38.257L129.83 12.334A8 8 0 0 0 122.718 8H87.111a8 8 0 0 0 0 16h31.143l43.302 70.869v36.706h128.531V26c0-5.5-4.5-10-10-10zm20 34.626c0-3.855 3.145-7 7-7h54.532c3.855 0 7 3.145 7 7V96.95c0 3.855-3.145 7-7 7h-54.532c-3.855 0-7-3.144-7-7zm114.531 9.701v12.927h70.874V60.327zm0 28.927v18.454h54.352l11.525-18.454z" clip-rule="evenodd" fill="#ffffff" opacity="1" data-original="#000000" class=""></path></g></svg>