<svg id="Layer_1" enable-background="new 0 0 512 512" viewBox="0 0 512 512" xmlns="http://www.w3.org/2000/svg"><g clip-rule="evenodd" fill-rule="evenodd"><g><g><path d="m115.316 337.816h25.408l18.617 118.181h-62.642z" fill="#8d9ca8"/><path d="m130.724 337.816h10l18.617 118.181h-10z" fill="#8192a5"/><path d="m94.436 434.737h67.168c2.754 0 5 2.246 5 5v11.26c0 2.754-2.246 5-5 5h-67.168c-2.754 0-5-2.246-5-5v-11.26c.001-2.754 2.246-5 5-5z" fill="#9facba"/><path d="m94.436 434.737h67.168c2.754 0 5 2.246 5 5v11.26c0 2.118-1.329 3.936-3.196 4.662.235-.579.365-1.211.365-1.873v-11.26c0-2.754-2.246-5-5-5h-67.167c-.636 0-1.244.12-1.804.338.744-1.831 2.542-3.127 4.634-3.127z" fill="#8d9ca8"/><ellipse cx="128.021" cy="337.816" fill="#8192a5" rx="22.67" ry="22.67" transform="matrix(.987 -.16 .16 .987 -52.459 24.869)"/><path d="m128.02 315.146c12.52 0 22.67 10.15 22.67 22.67s-10.15 22.67-22.67 22.67c-1.718 0-3.392-.192-5-.555 10.115-2.277 17.67-11.314 17.67-22.116s-7.556-19.839-17.67-22.116c1.609-.361 3.282-.553 5-.553z" fill="#65788e"/><path d="m215.869 340.927 12.047 3.228c2.66.713 4.248 3.463 3.535 6.123l-7.626 28.461c-.713 2.66-3.463 4.248-6.123 3.535l-12.047-3.228c-2.66-.713-4.248-3.463-3.535-6.123l7.626-28.461c.712-2.66 3.463-4.248 6.123-3.535z" fill="#837683"/><path d="m215.869 340.927 12.047 3.228c2.66.713 4.248 3.463 3.535 6.123l-7.626 28.461c-.713 2.66-3.463 4.248-6.123 3.535l-.247-.066c.718-.629 1.263-1.469 1.528-2.457l7.626-28.461c.713-2.66-.875-5.411-3.535-6.123l-11.8-3.162c1.215-1.065 2.923-1.526 4.595-1.078z" fill="#685e68"/><path d="m201.649 426.315h20.057c6.96 0 12.655 5.694 12.655 12.655v17.027h-45.366v-17.027c0-6.961 5.695-12.655 12.654-12.655z" fill="#ffe177"/><path d="m201.649 426.315h20.057c6.96 0 12.655 5.694 12.655 12.655v17.027h-2.699v-13.952c0-6.96-5.695-12.655-12.655-12.655h-20.057c-3.042 0-5.843 1.089-8.032 2.895 2.243-3.578 6.221-5.97 10.731-5.97z" fill="#ffd064"/><path d="m38.136 332.187c10.165 0 18.455-8.29 18.455-18.455 0-10.164-8.29-18.455-18.455-18.455s-18.455 8.29-18.455 18.455c.001 10.164 8.29 18.455 18.455 18.455z" fill="#837683"/><path d="m38.136 295.277c1.025 0 2.03.085 3.009.245-8.761 1.437-15.446 9.042-15.446 18.21 0 9.167 6.685 16.773 15.446 18.209-.979.16-1.984.246-3.009.246-10.192 0-18.455-8.263-18.455-18.455s8.263-18.455 18.455-18.455z" fill="#685e68"/><path d="m28.655 415.376h20.057c6.96 0 12.655 5.694 12.655 12.655v27.966h-45.367v-27.966c0-6.96 5.694-12.655 12.655-12.655z" fill="#ffe177"/><path d="m28.655 415.376h20.057c4.109 0 7.777 1.985 10.092 5.043-1.883-1.115-4.075-1.757-6.411-1.757h-20.057c-6.96 0-12.655 5.694-12.655 12.655v24.68h-3.681v-27.966c0-6.96 5.694-12.655 12.655-12.655z" fill="#ffd064"/></g><g><path d="m429.618 275.978v119.882l-17.521 24.815c-.967 1.369-2.408 2.116-4.084 2.116s-3.118-.747-4.085-2.116l-17.521-24.815v-119.882z" fill="#8d9ca8"/><path d="m429.618 275.978v119.882l-17.521 24.815c-.967 1.369-2.408 2.116-4.084 2.116s-3.118-.747-4.085-2.116l-.916-1.297 16.605-23.518v-119.882z" fill="#8192a5"/><path d="m340.027 356.917h19.398v47.509l48.588 68.816 48.589-68.816v-47.509h19.398v71.095c0 37.39-30.594 67.986-67.986 67.986-37.393 0-67.987-30.593-67.987-67.986z" fill="#a79ba7"/><path d="m374.943 240.093h66.139c2.754 0 5 2.246 5 5v37.166c0 2.754-2.246 5-5 5h-66.139c-2.754 0-5-2.246-5-5v-37.166c.001-2.754 2.247-5 5-5z" fill="#9facba"/><path d="m408.013 272.67c4.954 0 8.995-4.04 8.995-8.995 0-4.954-4.041-8.994-8.995-8.994s-8.995 4.041-8.995 8.994c0 4.954 4.041 8.995 8.995 8.995z" fill="#8d9ca8"/><path d="m349.424 356.917h10v47.509l48.588 68.816-5 7.082-53.588-75.898zm116.575 0v71.095c0 35.709-27.905 65.219-62.986 67.8 1.652.122 3.319.186 5 .186 37.392 0 67.986-30.596 67.986-67.986v-71.095z" fill="#837683"/><path d="m408.013 254.681c4.967 0 8.995 4.027 8.995 8.995s-4.027 8.995-8.995 8.995c-.65 0-1.284-.07-1.894-.201 1.456-.312 2.781-.976 3.882-1.9l.018-.015c.28-.236.544-.488.793-.756l.016-.017.111-.122.019-.022.107-.123.022-.026.099-.118.005-.006c.037-.045.074-.091.11-.137l.007-.01.114-.149.109-.148.003-.004.091-.13.024-.035.081-.121.03-.045.077-.12.03-.049.071-.116.032-.055.071-.122.091-.163.001-.002.088-.167.06-.12.034-.069.042-.089.046-.098.044-.098.039-.089.039-.091.043-.104.036-.09.035-.093.039-.104v-.001l.063-.181.028-.083.039-.119.022-.075.035-.118.026-.093.03-.112.023-.089.031-.126.017-.073.031-.142.014-.067c.014-.067.027-.135.039-.204l.002-.01c.012-.069.023-.138.034-.208l.004-.03.025-.18.008-.065.017-.151.007-.07.013-.152.005-.065.009-.143.005-.085.005-.127.003-.095c.002-.07.003-.141.003-.211 0-.071-.001-.142-.003-.212l-.003-.095-.005-.127-.005-.085-.009-.143-.005-.065-.013-.151-.007-.072-.017-.147-.008-.068-.024-.172-.005-.034-.003-.019c-.01-.065-.02-.129-.032-.193l-.002-.01c-.012-.068-.025-.136-.039-.204l-.014-.067-.031-.142-.017-.073-.031-.126-.023-.089-.03-.112-.026-.093-.035-.118-.022-.075-.039-.119-.028-.083-.063-.181-.047-.126-.026-.067-.04-.1-.04-.099-.037-.088-.042-.097-.041-.092-.047-.099-.042-.088-.037-.075-.057-.114-.088-.167-.001-.002-.091-.163-.003-.005-.056-.095-.05-.084-.056-.091-.047-.075-.066-.103-.037-.055-.083-.124-.014-.019-.093-.133-.024-.033-.092-.124-.114-.149c-.075-.095-.151-.189-.23-.281l-.012-.014-.103-.118-.028-.032-.114-.125-.001-.001-.126-.133-.008-.008c-1.216-1.256-2.794-2.157-4.567-2.538.613-.13 1.246-.199 1.896-.199z" fill="#8192a5"/><g fill="#8d9ca8"><path d="m431.082 240.093h10c2.754 0 5 2.246 5 5v37.166c0 2.754-2.246 5-5 5h-10c2.754 0 5-2.246 5-5v-37.166c0-2.754-2.246-5-5-5z"/><path d="m429.618 344.741-43.21-24.948v-.014l33.183 19.158v-18.417l10.027 5.789z"/><path d="m429.618 374.675-43.21-24.947v-.043l33.189 19.161v-18.388l10.021 5.786z"/><path d="m425.238 402.063-38.83-22.418v-.05l31.669 18.284 1.541-7.423v-10.033l10 5.774v9.663z"/></g></g><g><path d="m207.382 74.551h111.864v31.771l30.001 64.311h-141.865z" fill="#9facba"/><path d="m309.245 74.551h10.001v31.771l30.001 64.311h-10.001l-30.001-64.311z" fill="#8d9ca8"/><path d="m360.438 25.871h-85.609v81.835h85.609l16.522-26.454c-19.238 0-38.476 0-57.714 0-9.72 0-19.439 0-29.159 0v-6.701-22.226h86.873z" fill="#ffe177"/><path d="m171.555 15.998h108.532c5.5 0 10 4.5 10 10v144.635h-128.532v-144.635c0-5.5 4.5-10 10-10z" fill="#fe646f"/><path d="m191.555 50.998v50.324c0 2.754 2.246 5 5 5h58.532c2.754 0 5-2.246 5-5v-50.324c0-2.754-2.246-5-5-5h-58.532c-2.754 0-5 2.246-5 5z" fill="#eceff1"/><path d="m319.246 81.252h57.714v-28.927c-28.958 0-57.915 0-86.873 0v22.226 6.701z" fill="#ffd064"/><path d="m360.438 25.871h-10l16.522 26.454h10zm-10 81.835h10l16.522-26.454h-10z" fill="#ffe177"/><path d="m366.959 52.325h10v28.927h-10z" fill="#ffc338"/><path d="m270.087 15.998h10c5.5 0 10 4.5 10 10v144.635h-10v-144.635c-.001-5.5-4.501-10-10-10z" fill="#fd4755"/><path d="m131.111 147.573h209.778c24.2 0 44 19.8 44 44v14.66h-297.778v-14.66c0-24.2 19.799-44 44-44z" fill="#837683"/><path d="m245.086 106.322h10c2.754 0 5-2.246 5-5v-50.324c0-2.754-2.246-5-5-5h-10c2.754 0 5 2.246 5 5v50.324c0 2.754-2.246 5-5 5z" fill="#d1d1d6"/></g></g><path d="m417.008 263.679c0 4.961-4.029 8.99-8.994 8.99-4.968 0-8.995-4.029-8.995-8.99 0-4.966 4.027-9 8.995-9 4.965.001 8.994 4.034 8.994 9zm-39.063-15.589v31.169h60.137v-31.169zm43.672 73.583-27.21-15.712v-10.699h27.21zm-27.21 14.228v-11.461l27.21 15.702v11.466zm0 29.927v-11.456l27.21 15.707v11.461zm13.605 46.763-13.604-19.27v-9.009l23.854 13.767zm-46.067-172.503v47.172c0 4.42 3.58 8.002 8 8.002h8.463v2.057c-3.195-.541-6.529.913-8.246 3.883-2.208 3.827-.898 8.717 2.929 10.929l5.317 3.069v12.05c-3.195-.532-6.529.909-8.246 3.878-2.208 3.832-.898 8.722 2.929 10.93l5.317 3.074v12.059c-3.197-.541-6.531.909-8.246 3.878-2.208 3.832-.898 8.722 2.929 10.93l5.317 3.074v20.786c0 1.652.513 3.271 1.465 4.622l21.604 30.599c1.498 2.123 3.936 3.38 6.535 3.38 2.6 0 5.038-1.257 6.536-3.38l17.627-24.97 2.76 1.591c1.261.729 2.636 1.078 3.993 1.078 2.766 0 5.454-1.435 6.936-3.996 2.208-3.831.897-8.722-2.929-10.934l-5.315-3.069v-12.06c.436.071.872.118 1.309.118 2.766 0 5.454-1.426 6.936-3.996 2.208-3.831.897-8.722-2.929-10.929l-5.315-3.074v-12.049c.436.071.872.122 1.309.122 2.766 0 5.454-1.44 6.936-4.001 2.208-3.831.897-8.722-2.929-10.929l-5.315-3.069v-35.65h8.463c4.418 0 8-3.582 8-8.002v-47.172c0-4.406-3.582-7.997-8-7.997h-76.137c-4.423-.001-8.003 3.591-8.003 7.996zm106.053 187.922v-63.091h-3.398v39.509c0 1.652-.511 3.262-1.465 4.613l-48.588 68.819c-1.498 2.118-3.936 3.379-6.536 3.379-2.598 0-5.036-1.261-6.535-3.379l-48.588-68.819c-.954-1.351-1.465-2.961-1.465-4.613v-39.509h-3.398v63.091c0 33.08 26.91 59.989 59.987 59.989 33.078.001 59.986-26.909 59.986-59.989zm8-79.089h-19.398c-4.418 0-8 3.577-8 7.997v44.974l-40.589 57.476-40.588-57.476v-44.974c0-4.42-3.582-7.997-8-7.997h-19.397c-4.418 0-8 3.577-8 7.997v71.093c0 41.901 34.088 75.988 75.987 75.988 41.898 0 75.987-34.087 75.987-75.988v-71.093c.001-4.42-3.582-7.997-8.002-7.997zm-276.442-294.919h52.531v44.32h-52.531zm-8 60.319h68.531c4.418 0 8-3.582 8-8.002v-60.319c0-4.42-3.582-7.997-8-7.997h-68.531c-4.42 0-8 3.577-8 7.997v60.318c0 4.42 3.579 8.003 8 8.003zm-20.001-90.321c-1.085 0-2 .922-2 2v113.568h112.532v-113.567c0-1.078-.916-2-1.999-2h-108.533zm190.976 20.329h-64.446v-10.458h57.917zm-6.529 55.381h-57.917v-10.458h64.446zm-30.072 39.858h-27.844v-23.859h16.711zm42.897 29.343h-50.382v-13.339h22.444c11.263-.001 21.332 5.21 27.938 13.339zm8.06 29.319h-58.443v-13.32h57.814c.408 2.161.629 4.392.629 6.66zm-281.777-6.66c0-2.268.223-4.5.629-6.66h57.815v13.321h-58.444zm36.001-35.999h22.444v13.339h-50.384c6.606-8.128 16.675-13.339 27.94-13.339zm96.888 13.34h-58.444v-13.339h58.444zm0 29.319h-58.444v-13.32h58.444zm16-13.32h58.445v13.321h-58.445zm58.446-29.339v13.339h-58.445v-13.339zm-4.359-82.318v-12.921h70.875v12.921zm-210.975-49.253h31.12l35.324 57.81v57.758h-22.444c-28.673 0-52 23.332-52 52.001v14.662c0 4.42 3.582 8.002 8 8.002h297.778c4.416 0 8-3.582 8-8.002v-14.661c0-27.752-21.862-50.5-49.272-51.917l-11.166-23.944h27.988c2.758 0 5.323-1.417 6.784-3.761l16.522-26.457c.794-1.271 1.215-2.739 1.215-4.241v-28.919c0-1.501-.421-2.97-1.215-4.241l-16.522-26.448c-1.461-2.349-4.026-3.77-6.784-3.77h-64.313c-2.975-5.851-9.039-9.87-16.039-9.87h-108.532c-9.925 0-18 8.068-18 17.999v25.13l-24.011-39.302c-1.452-2.377-4.039-3.827-6.826-3.827h-35.607c-4.418 0-8 3.577-8 7.997 0 4.419 3.581 8.001 8 8.001zm-51.822 118.891c3.819-7.432 7.875-14.45 12.4-21.482 2.394-3.709 7.345-4.777 11.057-2.391 3.714 2.405 4.786 7.352 2.392 11.061-4.24 6.58-8.04 13.16-11.62 20.131-1.418 2.749-4.218 4.34-7.121 4.34-1.232 0-2.48-.287-3.65-.89-3.93-2.019-5.479-6.838-3.458-10.769zm468.405 125.509c-.207 4.283-3.742 7.611-7.983 7.611-.132 0-.264 0-.395-.01-4.415-.221-7.818-3.972-7.602-8.378.381-7.823.381-15.425 0-23.243-.212-4.41 3.186-8.162 7.602-8.378 4.419-.231 8.166 3.186 8.378 7.597.41 8.351.41 16.461 0 24.801zm-431.057-167.48c-3.275-2.97-3.521-8.03-.554-11.301 5.613-6.19 11.348-11.918 17.537-17.538 3.273-2.96 8.333-2.721 11.3.56 2.968 3.271 2.721 8.331-.552 11.301-5.798 5.248-11.174 10.628-16.433 16.427-1.578 1.742-3.749 2.622-5.928 2.622-1.917 0-3.838-.683-5.37-2.071zm-59.103 102.949c1.765-8.157 3.865-15.998 6.419-23.958 1.35-4.199 5.856-6.519 10.063-5.168 4.207 1.346 6.522 5.86 5.172 10.059-2.394 7.46-4.361 14.798-6.014 22.447-.813 3.751-4.127 6.312-7.812 6.312-.561 0-1.129-.061-1.699-.179-4.319-.932-7.063-5.192-6.129-9.513zm262.466 291.45c.217 4.41-3.187 8.162-7.599 8.383-4.173.198-8.288.297-12.401.297s-8.228-.099-12.398-.297c-4.413-.221-7.816-3.973-7.601-8.383.215-4.42 3.966-7.827 8.379-7.601 7.822.381 15.423.381 23.24 0 4.398-.236 8.165 3.181 8.38 7.601zm-62.62-2.979c-.811 3.751-4.128 6.312-7.813 6.312-.559 0-1.129-.061-1.699-.184-8.169-1.765-16.003-3.869-23.956-6.415-4.207-1.351-6.521-5.865-5.172-10.073 1.351-4.198 5.856-6.519 10.063-5.168 7.45 2.391 14.794 4.359 22.448 6.02 4.32.927 7.063 5.191 6.129 9.508zm123.877-10.351c1.352 4.199-.965 8.713-5.172 10.064-7.963 2.546-15.797 4.65-23.954 6.415-.57.122-1.14.184-1.699.184-3.686 0-7.002-2.561-7.813-6.312-.934-4.316 1.811-8.581 6.129-9.508 7.643-1.662 14.986-3.62 22.448-6.02 4.205-1.351 8.712.969 10.061 5.177zm-328.953-213.589c-.406-8.341-.406-16.46 0-24.801.215-4.41 3.97-7.809 8.38-7.597 4.413.216 7.816 3.968 7.601 8.378-.382 7.818-.382 15.42 0 23.243.215 4.406-3.188 8.166-7.601 8.378-.132.01-.265.01-.397.01-4.24 0-7.774-3.328-7.983-7.611zm490.161 39.731c-1.765 8.157-3.864 15.999-6.415 23.958-1.092 3.394-4.236 5.549-7.62 5.549-.81 0-1.633-.118-2.443-.377-4.208-1.351-6.525-5.86-5.173-10.063 2.396-7.456 4.363-14.798 6.015-22.447.932-4.321 5.192-7.06 9.508-6.133 4.32.932 7.06 5.192 6.128 9.513zm-16.484-133.388c4.212-1.351 8.717.969 10.068 5.168 2.551 7.959 4.65 15.801 6.415 23.958.932 4.321-1.807 8.581-6.128 9.513-.57.118-1.139.179-1.699.179-3.685 0-6.999-2.561-7.814-6.312-1.652-7.649-3.619-14.987-6.01-22.447-1.352-4.199.965-8.713 5.168-10.059zm-70.349-90.801c-3.275-2.97-3.521-8.03-.554-11.301 2.968-3.281 8.027-3.521 11.3-.56 6.185 5.611 11.921 11.348 17.537 17.538 2.968 3.271 2.721 8.331-.552 11.301-1.533 1.388-3.457 2.071-5.372 2.071-2.179 0-4.348-.88-5.928-2.622-5.261-5.799-10.638-11.179-16.431-16.427zm39.231 46.137c-2.394-3.709-1.324-8.67 2.39-11.061 3.714-2.386 8.665-1.318 11.058 2.391 4.528 7.032 8.584 14.05 12.402 21.482 2.017 3.93.47 8.75-3.461 10.769-1.169.602-2.418.89-3.65.89-2.903 0-5.703-1.591-7.121-4.349-3.576-6.952-7.379-13.542-11.618-20.122zm-224.502 317.922h-29.367v-9.033c0-2.518 2.131-4.646 4.656-4.646h20.056c2.525 0 4.655 2.128 4.655 4.646zm-9.664-98.572 6.249 1.68-6.073 22.659-6.25-1.666zm-107.29 77.311 9.399-59.669c2.909.918 6.005 1.421 9.213 1.421 3.209 0 6.305-.503 9.213-1.421l9.399 59.669zm49.197 21.261h-61.167v-5.258h61.167zm-120.467-123.81c-5.766 0-10.457-4.693-10.457-10.459 0-5.761 4.691-10.449 10.457-10.449 5.764 0 10.454 4.688 10.454 10.449.001 5.766-4.69 10.459-10.454 10.459zm89.883-1.04c8.09 0 14.67 6.58 14.67 14.671 0 8.086-6.58 14.667-14.67 14.667-8.088 0-14.67-6.58-14.67-14.667 0-8.091 6.582-14.671 14.67-14.671zm-74.654 104.878v19.971h-29.366v-19.971c0-2.518 2.133-4.651 4.655-4.651h20.056c2.522.001 4.655 2.133 4.655 4.651zm188.995 27.969v-17.03c0-11.386-9.265-20.649-20.655-20.649h-2.028v-27.229l.783.212c.68.179 1.377.268 2.07.268 1.392 0 2.773-.358 3.999-1.069 1.839-1.059 3.179-2.81 3.729-4.862l10.214-38.116c.55-2.052.261-4.232-.8-6.072-1.061-1.841-2.808-3.182-4.858-3.733l-21.705-5.808c-4.268-1.139-8.655 1.388-9.798 5.653l-3.037 11.339-41.586-11.151c-.035-16.883-13.778-30.599-30.668-30.599-11.305 0-21.195 6.147-26.515 15.279l-36.945-9.898c-.631-14.031-12.24-25.252-26.423-25.252-14.588 0-26.456 11.871-26.456 26.453 0 11.951 7.968 22.08 18.87 25.351v68.297h-1.896c-11.391-.002-20.656 9.257-20.656 20.647v27.968c0 4.42 3.582 8.002 8 8.002h45.366c4.418 0 8-3.582 8-8.002v-27.968c0-11.391-9.265-20.649-20.655-20.649h-2.159v-68.57c5.755-1.939 10.629-5.799 13.856-10.83l36.943 9.899c.015 7.272 2.574 13.951 6.831 19.213l-10.973 69.648h-3.772c-4.418 0-8.001 3.582-8.001 8.002v21.257c0 4.42 3.582 8.002 8.001 8.002h77.167c4.418 0 8-3.582 8-8.002v-21.257c0-4.42-3.581-8.002-8-8.002h-3.773l-10.973-69.648c.989-1.224 1.883-2.523 2.677-3.878l41.599 11.137-3.036 11.329c-1.144 4.269 1.388 8.661 5.657 9.8l4.922 1.323v31.517h-2.028c-11.39 0-20.655 9.263-20.655 20.649v17.03c0 4.42 3.582 8.002 8 8.002h45.366c4.419-.002 8.001-3.583 8.001-8.003z" fill="#242222"/></g></svg>